<?xml version="1.0" encoding="utf-8"?>
<!-- Generator: Adobe Illustrator 27.5.0, SVG Export Plug-In . SVG Version: 6.00 Build 0)  -->
<svg version="1.1" xmlns="http://www.w3.org/2000/svg" xmlns:xlink="http://www.w3.org/1999/xlink" x="0px" y="0px"
	 viewBox="0 0 750 500" style="enable-background:new 0 0 750 500;" xml:space="preserve">
<g id="Background_Simple">
	<g>
		<path style="fill:#92E3A9;" d="M683.445,289.683c-8.515-40.279-25.761-79.703-46.505-115.145
			C603.251,116.981,552.915,66.36,485.942,51.291C334.174,17.143,301.544,166.634,267.397,186.364
			c-34.148,19.73-119.137,9.106-165.427,72.09c-46.289,62.983-40.977,162.391-40.977,162.391h629.076
			C691.502,376.892,692.515,332.586,683.445,289.683z"/>
		<path style="opacity:0.7;fill:#FFFFFF;" d="M683.445,289.683c-8.515-40.279-25.761-79.703-46.505-115.145
			C603.251,116.981,552.915,66.36,485.942,51.291C334.174,17.143,301.544,166.634,267.397,186.364
			c-34.148,19.73-119.137,9.106-165.427,72.09c-46.289,62.983-40.977,162.391-40.977,162.391h629.076
			C691.502,376.892,692.515,332.586,683.445,289.683z"/>
	</g>
</g>
<g id="Bricks">
	<g style="opacity:0.3;">
		<g>
			
				<rect x="67.57" y="274.733" style="fill:none;stroke:#000000;stroke-linecap:round;stroke-linejoin:round;stroke-miterlimit:10;" width="24.093" height="24.093"/>
			
				<rect x="94.771" y="274.733" style="fill:none;stroke:#000000;stroke-linecap:round;stroke-linejoin:round;stroke-miterlimit:10;" width="24.093" height="24.093"/>
			
				<rect x="121.973" y="274.733" style="fill:none;stroke:#000000;stroke-linecap:round;stroke-linejoin:round;stroke-miterlimit:10;" width="24.093" height="24.093"/>
			
				<rect x="149.174" y="274.733" style="fill:none;stroke:#000000;stroke-linecap:round;stroke-linejoin:round;stroke-miterlimit:10;" width="24.093" height="24.093"/>
			
				<rect x="176.376" y="274.733" style="fill:none;stroke:#000000;stroke-linecap:round;stroke-linejoin:round;stroke-miterlimit:10;" width="24.093" height="24.093"/>
			
				<rect x="203.577" y="274.733" style="fill:none;stroke:#000000;stroke-linecap:round;stroke-linejoin:round;stroke-miterlimit:10;" width="24.093" height="24.093"/>
			
				<rect x="230.779" y="274.733" style="fill:none;stroke:#000000;stroke-linecap:round;stroke-linejoin:round;stroke-miterlimit:10;" width="24.093" height="24.093"/>
			
				<rect x="257.98" y="274.733" style="fill:none;stroke:#000000;stroke-linecap:round;stroke-linejoin:round;stroke-miterlimit:10;" width="24.093" height="24.093"/>
			
				<rect x="285.182" y="274.733" style="fill:none;stroke:#000000;stroke-linecap:round;stroke-linejoin:round;stroke-miterlimit:10;" width="24.093" height="24.093"/>
			
				<rect x="312.383" y="274.733" style="fill:none;stroke:#000000;stroke-linecap:round;stroke-linejoin:round;stroke-miterlimit:10;" width="24.093" height="24.093"/>
			
				<rect x="339.585" y="274.733" style="fill:none;stroke:#000000;stroke-linecap:round;stroke-linejoin:round;stroke-miterlimit:10;" width="24.093" height="24.093"/>
			
				<rect x="366.786" y="274.733" style="fill:none;stroke:#000000;stroke-linecap:round;stroke-linejoin:round;stroke-miterlimit:10;" width="24.093" height="24.093"/>
			
				<rect x="393.988" y="274.733" style="fill:none;stroke:#000000;stroke-linecap:round;stroke-linejoin:round;stroke-miterlimit:10;" width="24.093" height="24.093"/>
			
				<rect x="421.189" y="274.733" style="fill:none;stroke:#000000;stroke-linecap:round;stroke-linejoin:round;stroke-miterlimit:10;" width="24.093" height="24.093"/>
			
				<rect x="448.391" y="274.733" style="fill:none;stroke:#000000;stroke-linecap:round;stroke-linejoin:round;stroke-miterlimit:10;" width="24.093" height="24.093"/>
			
				<rect x="475.592" y="274.733" style="fill:none;stroke:#000000;stroke-linecap:round;stroke-linejoin:round;stroke-miterlimit:10;" width="24.093" height="24.093"/>
			
				<rect x="502.794" y="274.733" style="fill:none;stroke:#000000;stroke-linecap:round;stroke-linejoin:round;stroke-miterlimit:10;" width="24.093" height="24.093"/>
			
				<rect x="529.995" y="274.733" style="fill:none;stroke:#000000;stroke-linecap:round;stroke-linejoin:round;stroke-miterlimit:10;" width="24.093" height="24.093"/>
			
				<rect x="557.197" y="274.733" style="fill:none;stroke:#000000;stroke-linecap:round;stroke-linejoin:round;stroke-miterlimit:10;" width="24.093" height="24.093"/>
			
				<rect x="584.398" y="274.733" style="fill:none;stroke:#000000;stroke-linecap:round;stroke-linejoin:round;stroke-miterlimit:10;" width="24.093" height="24.093"/>
			
				<rect x="611.6" y="274.733" style="fill:none;stroke:#000000;stroke-linecap:round;stroke-linejoin:round;stroke-miterlimit:10;" width="24.093" height="24.093"/>
			
				<rect x="638.802" y="274.733" style="fill:none;stroke:#000000;stroke-linecap:round;stroke-linejoin:round;stroke-miterlimit:10;" width="24.093" height="24.093"/>
		</g>
		<g>
			
				<rect x="54.357" y="302.712" style="fill:none;stroke:#000000;stroke-linecap:round;stroke-linejoin:round;stroke-miterlimit:10;" width="24.093" height="24.093"/>
			
				<rect x="81.559" y="302.712" style="fill:none;stroke:#000000;stroke-linecap:round;stroke-linejoin:round;stroke-miterlimit:10;" width="24.093" height="24.093"/>
			
				<rect x="108.76" y="302.712" style="fill:none;stroke:#000000;stroke-linecap:round;stroke-linejoin:round;stroke-miterlimit:10;" width="24.093" height="24.093"/>
			
				<rect x="135.962" y="302.712" style="fill:none;stroke:#000000;stroke-linecap:round;stroke-linejoin:round;stroke-miterlimit:10;" width="24.093" height="24.093"/>
			
				<rect x="163.163" y="302.712" style="fill:none;stroke:#000000;stroke-linecap:round;stroke-linejoin:round;stroke-miterlimit:10;" width="24.093" height="24.093"/>
			
				<rect x="190.365" y="302.712" style="fill:none;stroke:#000000;stroke-linecap:round;stroke-linejoin:round;stroke-miterlimit:10;" width="24.093" height="24.093"/>
			
				<rect x="217.567" y="302.712" style="fill:none;stroke:#000000;stroke-linecap:round;stroke-linejoin:round;stroke-miterlimit:10;" width="24.093" height="24.093"/>
			
				<rect x="244.768" y="302.712" style="fill:none;stroke:#000000;stroke-linecap:round;stroke-linejoin:round;stroke-miterlimit:10;" width="24.093" height="24.093"/>
			
				<rect x="271.97" y="302.712" style="fill:none;stroke:#000000;stroke-linecap:round;stroke-linejoin:round;stroke-miterlimit:10;" width="24.093" height="24.093"/>
			
				<rect x="299.171" y="302.712" style="fill:none;stroke:#000000;stroke-linecap:round;stroke-linejoin:round;stroke-miterlimit:10;" width="24.093" height="24.093"/>
			
				<rect x="326.373" y="302.712" style="fill:none;stroke:#000000;stroke-linecap:round;stroke-linejoin:round;stroke-miterlimit:10;" width="24.093" height="24.093"/>
			
				<rect x="353.574" y="302.712" style="fill:none;stroke:#000000;stroke-linecap:round;stroke-linejoin:round;stroke-miterlimit:10;" width="24.093" height="24.093"/>
			
				<rect x="380.776" y="302.712" style="fill:none;stroke:#000000;stroke-linecap:round;stroke-linejoin:round;stroke-miterlimit:10;" width="24.093" height="24.093"/>
			
				<rect x="407.977" y="302.712" style="fill:none;stroke:#000000;stroke-linecap:round;stroke-linejoin:round;stroke-miterlimit:10;" width="24.093" height="24.093"/>
			
				<rect x="435.179" y="302.712" style="fill:none;stroke:#000000;stroke-linecap:round;stroke-linejoin:round;stroke-miterlimit:10;" width="24.093" height="24.093"/>
			
				<rect x="462.38" y="302.712" style="fill:none;stroke:#000000;stroke-linecap:round;stroke-linejoin:round;stroke-miterlimit:10;" width="24.093" height="24.093"/>
			
				<rect x="489.582" y="302.712" style="fill:none;stroke:#000000;stroke-linecap:round;stroke-linejoin:round;stroke-miterlimit:10;" width="24.093" height="24.093"/>
			
				<rect x="516.783" y="302.712" style="fill:none;stroke:#000000;stroke-linecap:round;stroke-linejoin:round;stroke-miterlimit:10;" width="24.093" height="24.093"/>
			
				<rect x="543.985" y="302.712" style="fill:none;stroke:#000000;stroke-linecap:round;stroke-linejoin:round;stroke-miterlimit:10;" width="24.093" height="24.093"/>
			
				<rect x="571.186" y="302.712" style="fill:none;stroke:#000000;stroke-linecap:round;stroke-linejoin:round;stroke-miterlimit:10;" width="24.093" height="24.093"/>
			
				<rect x="598.388" y="302.712" style="fill:none;stroke:#000000;stroke-linecap:round;stroke-linejoin:round;stroke-miterlimit:10;" width="24.093" height="24.093"/>
			
				<rect x="625.589" y="302.712" style="fill:none;stroke:#000000;stroke-linecap:round;stroke-linejoin:round;stroke-miterlimit:10;" width="24.093" height="24.093"/>
		</g>
		<g>
			
				<rect x="67.57" y="330.691" style="fill:none;stroke:#000000;stroke-linecap:round;stroke-linejoin:round;stroke-miterlimit:10;" width="24.093" height="24.093"/>
			
				<rect x="94.771" y="330.691" style="fill:none;stroke:#000000;stroke-linecap:round;stroke-linejoin:round;stroke-miterlimit:10;" width="24.093" height="24.093"/>
			
				<rect x="121.973" y="330.691" style="fill:none;stroke:#000000;stroke-linecap:round;stroke-linejoin:round;stroke-miterlimit:10;" width="24.093" height="24.093"/>
			
				<rect x="149.174" y="330.691" style="fill:none;stroke:#000000;stroke-linecap:round;stroke-linejoin:round;stroke-miterlimit:10;" width="24.093" height="24.093"/>
			
				<rect x="176.376" y="330.691" style="fill:none;stroke:#000000;stroke-linecap:round;stroke-linejoin:round;stroke-miterlimit:10;" width="24.093" height="24.093"/>
			
				<rect x="203.577" y="330.691" style="fill:none;stroke:#000000;stroke-linecap:round;stroke-linejoin:round;stroke-miterlimit:10;" width="24.093" height="24.093"/>
			
				<rect x="230.779" y="330.691" style="fill:none;stroke:#000000;stroke-linecap:round;stroke-linejoin:round;stroke-miterlimit:10;" width="24.093" height="24.093"/>
			
				<rect x="257.98" y="330.691" style="fill:none;stroke:#000000;stroke-linecap:round;stroke-linejoin:round;stroke-miterlimit:10;" width="24.093" height="24.093"/>
			
				<rect x="285.182" y="330.691" style="fill:none;stroke:#000000;stroke-linecap:round;stroke-linejoin:round;stroke-miterlimit:10;" width="24.093" height="24.093"/>
			
				<rect x="312.383" y="330.691" style="fill:none;stroke:#000000;stroke-linecap:round;stroke-linejoin:round;stroke-miterlimit:10;" width="24.093" height="24.093"/>
			
				<rect x="339.585" y="330.691" style="fill:none;stroke:#000000;stroke-linecap:round;stroke-linejoin:round;stroke-miterlimit:10;" width="24.093" height="24.093"/>
			
				<rect x="366.786" y="330.691" style="fill:none;stroke:#000000;stroke-linecap:round;stroke-linejoin:round;stroke-miterlimit:10;" width="24.093" height="24.093"/>
			
				<rect x="393.988" y="330.691" style="fill:none;stroke:#000000;stroke-linecap:round;stroke-linejoin:round;stroke-miterlimit:10;" width="24.093" height="24.093"/>
			
				<rect x="421.189" y="330.691" style="fill:none;stroke:#000000;stroke-linecap:round;stroke-linejoin:round;stroke-miterlimit:10;" width="24.093" height="24.093"/>
			
				<rect x="448.391" y="330.691" style="fill:none;stroke:#000000;stroke-linecap:round;stroke-linejoin:round;stroke-miterlimit:10;" width="24.093" height="24.093"/>
			
				<rect x="475.592" y="330.691" style="fill:none;stroke:#000000;stroke-linecap:round;stroke-linejoin:round;stroke-miterlimit:10;" width="24.093" height="24.093"/>
			
				<rect x="502.794" y="330.691" style="fill:none;stroke:#000000;stroke-linecap:round;stroke-linejoin:round;stroke-miterlimit:10;" width="24.093" height="24.093"/>
			
				<rect x="529.995" y="330.691" style="fill:none;stroke:#000000;stroke-linecap:round;stroke-linejoin:round;stroke-miterlimit:10;" width="24.093" height="24.093"/>
			
				<rect x="557.197" y="330.691" style="fill:none;stroke:#000000;stroke-linecap:round;stroke-linejoin:round;stroke-miterlimit:10;" width="24.093" height="24.093"/>
			
				<rect x="584.398" y="330.691" style="fill:none;stroke:#000000;stroke-linecap:round;stroke-linejoin:round;stroke-miterlimit:10;" width="24.093" height="24.093"/>
			
				<rect x="611.6" y="330.691" style="fill:none;stroke:#000000;stroke-linecap:round;stroke-linejoin:round;stroke-miterlimit:10;" width="24.093" height="24.093"/>
			
				<rect x="638.802" y="330.691" style="fill:none;stroke:#000000;stroke-linecap:round;stroke-linejoin:round;stroke-miterlimit:10;" width="24.093" height="24.093"/>
		</g>
		<g>
			
				<rect x="67.57" y="386.648" style="fill:none;stroke:#000000;stroke-linecap:round;stroke-linejoin:round;stroke-miterlimit:10;" width="24.093" height="24.093"/>
			
				<rect x="94.771" y="386.648" style="fill:none;stroke:#000000;stroke-linecap:round;stroke-linejoin:round;stroke-miterlimit:10;" width="24.093" height="24.093"/>
			
				<rect x="121.973" y="386.648" style="fill:none;stroke:#000000;stroke-linecap:round;stroke-linejoin:round;stroke-miterlimit:10;" width="24.093" height="24.093"/>
			
				<rect x="149.174" y="386.648" style="fill:none;stroke:#000000;stroke-linecap:round;stroke-linejoin:round;stroke-miterlimit:10;" width="24.093" height="24.093"/>
			
				<rect x="176.376" y="386.648" style="fill:none;stroke:#000000;stroke-linecap:round;stroke-linejoin:round;stroke-miterlimit:10;" width="24.093" height="24.093"/>
			
				<rect x="203.577" y="386.648" style="fill:none;stroke:#000000;stroke-linecap:round;stroke-linejoin:round;stroke-miterlimit:10;" width="24.093" height="24.093"/>
			
				<rect x="230.779" y="386.648" style="fill:none;stroke:#000000;stroke-linecap:round;stroke-linejoin:round;stroke-miterlimit:10;" width="24.093" height="24.093"/>
			
				<rect x="257.98" y="386.648" style="fill:none;stroke:#000000;stroke-linecap:round;stroke-linejoin:round;stroke-miterlimit:10;" width="24.093" height="24.093"/>
			
				<rect x="285.182" y="386.648" style="fill:none;stroke:#000000;stroke-linecap:round;stroke-linejoin:round;stroke-miterlimit:10;" width="24.093" height="24.093"/>
			
				<rect x="312.383" y="386.648" style="fill:none;stroke:#000000;stroke-linecap:round;stroke-linejoin:round;stroke-miterlimit:10;" width="24.093" height="24.093"/>
			
				<rect x="339.585" y="386.648" style="fill:none;stroke:#000000;stroke-linecap:round;stroke-linejoin:round;stroke-miterlimit:10;" width="24.093" height="24.093"/>
			
				<rect x="366.786" y="386.648" style="fill:none;stroke:#000000;stroke-linecap:round;stroke-linejoin:round;stroke-miterlimit:10;" width="24.093" height="24.093"/>
			
				<rect x="393.988" y="386.648" style="fill:none;stroke:#000000;stroke-linecap:round;stroke-linejoin:round;stroke-miterlimit:10;" width="24.093" height="24.093"/>
			
				<rect x="421.189" y="386.648" style="fill:none;stroke:#000000;stroke-linecap:round;stroke-linejoin:round;stroke-miterlimit:10;" width="24.093" height="24.093"/>
			
				<rect x="448.391" y="386.648" style="fill:none;stroke:#000000;stroke-linecap:round;stroke-linejoin:round;stroke-miterlimit:10;" width="24.093" height="24.093"/>
			
				<rect x="475.592" y="386.648" style="fill:none;stroke:#000000;stroke-linecap:round;stroke-linejoin:round;stroke-miterlimit:10;" width="24.093" height="24.093"/>
			
				<rect x="502.794" y="386.648" style="fill:none;stroke:#000000;stroke-linecap:round;stroke-linejoin:round;stroke-miterlimit:10;" width="24.093" height="24.093"/>
			
				<rect x="529.995" y="386.648" style="fill:none;stroke:#000000;stroke-linecap:round;stroke-linejoin:round;stroke-miterlimit:10;" width="24.093" height="24.093"/>
			
				<rect x="557.197" y="386.648" style="fill:none;stroke:#000000;stroke-linecap:round;stroke-linejoin:round;stroke-miterlimit:10;" width="24.093" height="24.093"/>
			
				<rect x="584.398" y="386.648" style="fill:none;stroke:#000000;stroke-linecap:round;stroke-linejoin:round;stroke-miterlimit:10;" width="24.093" height="24.093"/>
			
				<rect x="611.6" y="386.648" style="fill:none;stroke:#000000;stroke-linecap:round;stroke-linejoin:round;stroke-miterlimit:10;" width="24.093" height="24.093"/>
			
				<rect x="638.802" y="386.648" style="fill:none;stroke:#000000;stroke-linecap:round;stroke-linejoin:round;stroke-miterlimit:10;" width="24.093" height="24.093"/>
		</g>
		<g>
			
				<rect x="54.357" y="358.669" style="fill:none;stroke:#000000;stroke-linecap:round;stroke-linejoin:round;stroke-miterlimit:10;" width="24.093" height="24.093"/>
			
				<rect x="81.559" y="358.669" style="fill:none;stroke:#000000;stroke-linecap:round;stroke-linejoin:round;stroke-miterlimit:10;" width="24.093" height="24.093"/>
			
				<rect x="108.76" y="358.669" style="fill:none;stroke:#000000;stroke-linecap:round;stroke-linejoin:round;stroke-miterlimit:10;" width="24.093" height="24.093"/>
			
				<rect x="135.962" y="358.669" style="fill:none;stroke:#000000;stroke-linecap:round;stroke-linejoin:round;stroke-miterlimit:10;" width="24.093" height="24.093"/>
			
				<rect x="163.163" y="358.669" style="fill:none;stroke:#000000;stroke-linecap:round;stroke-linejoin:round;stroke-miterlimit:10;" width="24.093" height="24.093"/>
			
				<rect x="190.365" y="358.669" style="fill:none;stroke:#000000;stroke-linecap:round;stroke-linejoin:round;stroke-miterlimit:10;" width="24.093" height="24.093"/>
			
				<rect x="217.567" y="358.669" style="fill:none;stroke:#000000;stroke-linecap:round;stroke-linejoin:round;stroke-miterlimit:10;" width="24.093" height="24.093"/>
			
				<rect x="244.768" y="358.669" style="fill:none;stroke:#000000;stroke-linecap:round;stroke-linejoin:round;stroke-miterlimit:10;" width="24.093" height="24.093"/>
			
				<rect x="271.97" y="358.669" style="fill:none;stroke:#000000;stroke-linecap:round;stroke-linejoin:round;stroke-miterlimit:10;" width="24.093" height="24.093"/>
			
				<rect x="299.171" y="358.669" style="fill:none;stroke:#000000;stroke-linecap:round;stroke-linejoin:round;stroke-miterlimit:10;" width="24.093" height="24.093"/>
			
				<rect x="326.373" y="358.669" style="fill:none;stroke:#000000;stroke-linecap:round;stroke-linejoin:round;stroke-miterlimit:10;" width="24.093" height="24.093"/>
			
				<rect x="353.574" y="358.669" style="fill:none;stroke:#000000;stroke-linecap:round;stroke-linejoin:round;stroke-miterlimit:10;" width="24.093" height="24.093"/>
			
				<rect x="380.776" y="358.669" style="fill:none;stroke:#000000;stroke-linecap:round;stroke-linejoin:round;stroke-miterlimit:10;" width="24.093" height="24.093"/>
			
				<rect x="407.977" y="358.669" style="fill:none;stroke:#000000;stroke-linecap:round;stroke-linejoin:round;stroke-miterlimit:10;" width="24.093" height="24.093"/>
			
				<rect x="435.179" y="358.669" style="fill:none;stroke:#000000;stroke-linecap:round;stroke-linejoin:round;stroke-miterlimit:10;" width="24.093" height="24.093"/>
			
				<rect x="462.38" y="358.669" style="fill:none;stroke:#000000;stroke-linecap:round;stroke-linejoin:round;stroke-miterlimit:10;" width="24.093" height="24.093"/>
			
				<rect x="489.582" y="358.669" style="fill:none;stroke:#000000;stroke-linecap:round;stroke-linejoin:round;stroke-miterlimit:10;" width="24.093" height="24.093"/>
			
				<rect x="516.783" y="358.669" style="fill:none;stroke:#000000;stroke-linecap:round;stroke-linejoin:round;stroke-miterlimit:10;" width="24.093" height="24.093"/>
			
				<rect x="543.985" y="358.669" style="fill:none;stroke:#000000;stroke-linecap:round;stroke-linejoin:round;stroke-miterlimit:10;" width="24.093" height="24.093"/>
			
				<rect x="571.186" y="358.669" style="fill:none;stroke:#000000;stroke-linecap:round;stroke-linejoin:round;stroke-miterlimit:10;" width="24.093" height="24.093"/>
			
				<rect x="598.388" y="358.669" style="fill:none;stroke:#000000;stroke-linecap:round;stroke-linejoin:round;stroke-miterlimit:10;" width="24.093" height="24.093"/>
			
				<rect x="625.589" y="358.669" style="fill:none;stroke:#000000;stroke-linecap:round;stroke-linejoin:round;stroke-miterlimit:10;" width="24.093" height="24.093"/>
		</g>
	</g>
</g>
<g id="Table">
	
		<line style="fill:none;stroke:#263238;stroke-linecap:round;stroke-linejoin:round;stroke-miterlimit:10;" x1="23.27" y1="420.339" x2="721.648" y2="420.339"/>
</g>
<g id="Mirror">
	<g>
		
			<circle style="fill:#263238;stroke:#263238;stroke-linecap:round;stroke-linejoin:round;stroke-miterlimit:10;" cx="329.14" cy="186.286" r="76.588"/>
		
			<ellipse transform="matrix(0.7071 -0.7071 0.7071 0.7071 -35.3215 287.2993)" style="fill:#FFFFFF;stroke:#263238;stroke-linecap:round;stroke-linejoin:round;stroke-miterlimit:10;" cx="329.14" cy="186.287" rx="72.063" ry="72.063"/>
		
			<line style="fill:#FFFFFF;stroke:#263238;stroke-linecap:round;stroke-linejoin:round;stroke-miterlimit:10;" x1="301.12" y1="212.065" x2="294.395" y2="218.79"/>
		
			<line style="fill:#FFFFFF;stroke:#263238;stroke-linecap:round;stroke-linejoin:round;stroke-miterlimit:10;" x1="374.346" y1="138.839" x2="308.219" y2="204.967"/>
		
			<line style="fill:#FFFFFF;stroke:#263238;stroke-linecap:round;stroke-linejoin:round;stroke-miterlimit:10;" x1="332.503" y1="197.868" x2="316.811" y2="213.559"/>
		
			<line style="fill:#FFFFFF;stroke:#263238;stroke-linecap:round;stroke-linejoin:round;stroke-miterlimit:10;" x1="360.149" y1="132.862" x2="347.073" y2="145.938"/>
		
			<line style="fill:#FFFFFF;stroke:#263238;stroke-linecap:round;stroke-linejoin:round;stroke-miterlimit:10;" x1="288.418" y1="148.553" x2="272.727" y2="164.244"/>
		
			<line style="fill:#FFFFFF;stroke:#263238;stroke-linecap:round;stroke-linejoin:round;stroke-miterlimit:10;" x1="360.149" y1="235.228" x2="355.666" y2="239.711"/>
		
			<line style="fill:#FFFFFF;stroke:#263238;stroke-linecap:round;stroke-linejoin:round;stroke-miterlimit:10;" x1="375.093" y1="220.284" x2="365.753" y2="229.624"/>
	</g>
</g>
<g id="Plant">
	<g>
		<g>
			<path style="fill:#263238;" d="M593.922,407.934c-0.037-0.205-7.391-51.319-8.95-79.724c-1.438-26.197-1.711-63.423,7.376-97.464
				l-0.886-1.507c-5.042,18.891-10.504,51.413-7.886,99.069c1.565,28.489,8.932,79.674,8.97,79.879L593.922,407.934z"/>
		</g>
		<g>
			<path style="fill:#263238;" d="M605.823,252.68c-10.536,3.874-16.838,7.588-20.189,9.932c0.394-4.151,3.178-13.994,19.292-25.513
				c25.529-18.25,75.084-2.679,86.644,1.334C666.22,239.491,632.45,242.89,605.823,252.68z"/>
			<path style="fill:#263238;" d="M606.255,253.516c27.319-10.019,62.194-13.299,87.661-14.241c0.067,0.025,0.112,0.042,0.112,0.042
				s-28.31,25.799-62.713,31.504c-34.403,5.705-45.684-6.102-45.684-6.102s-0.053-0.314-0.055-0.901
				C588.712,261.551,595.145,257.59,606.255,253.516z"/>
		</g>
		<g>
			<path style="fill:#263238;" d="M569.791,268.234c7.701,5.142,12.037,9.337,14.271,11.864c0.486-3.405,0.154-11.836-10.542-24.185
				c-16.947-19.565-59.692-16.649-69.737-15.664C523.907,245.994,550.33,255.241,569.791,268.234z"/>
			<path style="fill:#263238;" d="M569.283,268.821c-19.972-13.31-47.305-22.676-67.545-28.35c-0.059,0.007-0.098,0.012-0.098,0.012
				s17.719,26.156,44.205,37.375c26.486,11.219,37.812,3.93,37.812,3.93s0.103-0.241,0.218-0.712
				C581.799,278.653,577.406,274.234,569.283,268.821z"/>
		</g>
		<g>
			<path style="fill:#263238;" d="M575.516,370.121c7.701,5.142,12.037,9.337,14.271,11.864c0.486-3.405,0.154-11.836-10.542-24.185
				c-16.947-19.565-59.692-16.65-69.737-15.664C529.631,347.881,556.055,357.128,575.516,370.121z"/>
			<path style="fill:#263238;" d="M575.008,370.708c-19.972-13.31-47.305-22.676-67.545-28.35c-0.059,0.007-0.098,0.012-0.098,0.012
				s17.719,26.156,44.205,37.375c26.486,11.219,37.812,3.93,37.812,3.93s0.103-0.242,0.218-0.712
				C587.524,380.54,583.13,376.121,575.008,370.708z"/>
		</g>
		<g>
			<path style="fill:#263238;" d="M599.747,330.928c-7.701,5.142-12.037,9.337-14.271,11.864
				c-0.486-3.405-0.154-11.836,10.542-24.185c16.947-19.565,59.692-16.649,69.737-15.664
				C645.632,308.687,619.209,317.935,599.747,330.928z"/>
			<path style="fill:#263238;" d="M600.255,331.514c19.972-13.31,47.305-22.676,67.545-28.35c0.059,0.007,0.098,0.012,0.098,0.012
				s-17.719,26.156-44.205,37.375c-26.486,11.219-37.812,3.93-37.812,3.93s-0.103-0.241-0.218-0.712
				C587.739,341.346,592.133,336.927,600.255,331.514z"/>
		</g>
		<g>
			<path style="fill:#263238;" d="M604.634,380.103c-7.7,5.142-12.037,9.337-14.271,11.864c-0.486-3.405-0.154-11.836,10.542-24.185
				c16.947-19.565,59.692-16.65,69.737-15.664C650.519,357.862,624.096,367.11,604.634,380.103z"/>
			<path style="fill:#263238;" d="M605.142,380.69c19.972-13.31,47.305-22.676,67.545-28.35c0.059,0.007,0.098,0.012,0.098,0.012
				s-17.718,26.156-44.205,37.375c-26.486,11.219-37.812,3.93-37.812,3.93s-0.103-0.241-0.218-0.712
				C592.626,390.522,597.02,386.103,605.142,380.69z"/>
		</g>
		<g>
			<path style="fill:#263238;" d="M564.575,311.813c10.109,4.881,16.02,9.191,19.127,11.849c0.012-4.17-1.802-14.237-16.718-27.269
				c-23.632-20.648-74.467-9.972-86.362-7.103C505.748,292.81,539.027,299.478,564.575,311.813z"/>
			<path style="fill:#263238;" d="M564.063,312.602c-26.214-12.63-60.605-19.287-85.86-22.703c-0.069,0.019-0.116,0.031-0.116,0.031
				s25.665,28.431,59.35,37.457c33.685,9.025,46.061-1.628,46.061-1.628s0.083-0.307,0.143-0.891
				C580.742,322.306,574.725,317.738,564.063,312.602z"/>
		</g>
		<g>
			<path style="fill:#263238;" d="M598.264,208.408c-4.47,10.298-6.133,17.422-6.75,21.463c-2.732-3.151-7.931-11.959-5.143-31.569
				c4.417-31.069,49.891-56.175,60.774-61.769C630.412,155.605,609.561,182.384,598.264,208.408z"/>
			<path style="fill:#263238;" d="M599.167,208.672c11.609-26.682,33.309-54.179,50.207-73.257c0.065-0.031,0.108-0.052,0.108-0.052
				s-0.875,38.292-20.495,67.122c-19.62,28.83-35.95,28.842-35.95,28.842s-0.263-0.178-0.69-0.582
				C592.871,226.912,594.445,219.523,599.167,208.672z"/>
		</g>
	</g>
</g>
<g id="Character">
	<g>
		<g>
			<g>
				<path style="fill:#FFFFFF;stroke:#263238;stroke-linecap:round;stroke-linejoin:round;stroke-miterlimit:10;" d="
					M130.079,242.514c0,0,10.499,5.959,12.485,12.485c1.986,6.526,1.986,13.904,3.973,17.877c1.986,3.973,8.797,7.094,9.364,7.945
					c0.568,0.851-0.284,1.135-1.986,4.256c-1.703,3.121-3.689,3.973-3.689,3.973s-3.689,11.918-5.959,17.593
					c-2.27,5.675-3.121,7.945-5.959,7.945s-13.904-2.554-13.904-2.554l1.135,9.932l-25.822,9.364c0,0,0.363-14.35-0.851-19.012
					c-1.215-4.662-3.973-7.094-4.824-7.661c-0.851-0.568-7.945-8.229,4.54-29.227C111.067,254.432,130.079,242.514,130.079,242.514z
					"/>
				<path style="fill:none;stroke:#263238;stroke-linecap:round;stroke-linejoin:round;stroke-miterlimit:10;" d="M138.308,262.661
					c0,0-5.391-2.27-9.08,3.121"/>
				<path style="fill:none;stroke:#263238;stroke-linecap:round;stroke-linejoin:round;stroke-miterlimit:10;" d="M131.497,277.417
					c0,0,5.108,1.986,8.513-2.27"/>
				<path style="fill:none;stroke:#263238;stroke-linecap:round;stroke-linejoin:round;stroke-miterlimit:10;" d="M131.781,289.618
					c0,0,2.838,6.526,9.932,5.675"/>
				<path style="fill:#263238;stroke:#263238;stroke-linecap:round;stroke-linejoin:round;stroke-miterlimit:10;" d="
					M110.499,272.877c0,0,2.838,7.378,0.851,8.797s-5.959-2.27-5.959-2.27L110.499,272.877z"/>
				<path style="fill:#263238;stroke:#263238;stroke-linecap:round;stroke-linejoin:round;stroke-miterlimit:10;" d="
					M97.446,294.726c0,0,4.256,4.54,6.243,3.689c1.986-0.851,1.986-0.851,1.986-0.851l4.54,6.526l-5.391-2.838
					c0,0,0,1.702-3.121,4.824c-3.121,3.121-4.052,1.581-4.052,1.581S93.474,302.388,97.446,294.726z"/>
			</g>
			<g>
				<path style="fill:#FFFFFF;stroke:#263238;stroke-linecap:round;stroke-linejoin:round;stroke-miterlimit:10;" d="
					M130.485,244.629c0,0-18.493,27.174-24.909,36.986c-6.416,9.813-7.926,26.041-7.926,26.041s-0.377,0.755-3.397,0.377
					s-3.019-0.377-3.019-0.377s9.058,6.039,8.303,10.568c-0.755,4.529-2.264,6.793-8.68,6.416
					c-6.416-0.377-12.832-2.642-12.832-2.642s-3.774,2.642-10.945-2.642c-7.171-5.284-10.19-9.435-10.19-9.435
					s-4.529-2.264-5.284-7.171c-0.755-4.906-0.377-9.435-0.377-9.435l-5.661-5.284c0,0-7.926-12.832-1.51-32.457
					s21.135-33.212,43.402-35.477c22.267-2.264,21.512,2.642,21.512,2.642s6.039,0,11.322,4.906
					C125.579,232.552,132.75,239.345,130.485,244.629z"/>
				<path style="fill:none;stroke:#263238;stroke-linecap:round;stroke-linejoin:round;stroke-miterlimit:10;" d="M98.906,227.384
					c1.428-0.798,2.928-1.526,4.499-2.179"/>
				<path style="fill:none;stroke:#263238;stroke-linecap:round;stroke-linejoin:round;stroke-miterlimit:10;" d="M91.234,307.657
					c0,0-5.706-0.445-11.665-25.132c-5.157-21.366,0.1-41.882,15.773-52.902"/>
				<path style="fill:none;stroke:#263238;stroke-linecap:round;stroke-linejoin:round;stroke-miterlimit:10;" d="M54.609,290.418
					c6.813,1.32,18.426,2.156,24.961-5.34"/>
				<path style="fill:none;stroke:#263238;stroke-linecap:round;stroke-linejoin:round;stroke-miterlimit:10;" d="M49.207,289.051
					c0,0,0.862,0.295,2.317,0.671"/>
				<path style="fill:none;stroke:#263238;stroke-linecap:round;stroke-linejoin:round;stroke-miterlimit:10;" d="M73.374,307.009
					c3.071-1.564,6.061-4.061,8.182-8.027"/>
				<path style="fill:none;stroke:#263238;stroke-linecap:round;stroke-linejoin:round;stroke-miterlimit:10;" d="M60.274,309.482
					c0,0,4.925,0.568,10.342-1.305"/>
				<path style="fill:none;stroke:#263238;stroke-linecap:round;stroke-linejoin:round;stroke-miterlimit:10;" d="M86.309,316.025
					c1.538-1.945,2.802-4.699,2.908-8.529"/>
				<path style="fill:none;stroke:#263238;stroke-linecap:round;stroke-linejoin:round;stroke-miterlimit:10;" d="M80.421,320.264
					c0,0,1.625-0.488,3.479-1.889"/>
			</g>
			<g>
				<path style="fill:#FFFFFF;stroke:#263238;stroke-linecap:round;stroke-linejoin:round;stroke-miterlimit:10;" d="
					M142.564,328.21c0,0-9.364-7.945-21.566-8.513s-22.701,2.27-28.66,12.202c-5.959,9.932,0.851,20.715,10.215,23.268
					c9.364,2.554,127.408,0,127.408,0s-34.051-25.822-44.266-26.957C175.48,327.074,142.564,328.21,142.564,328.21z"/>
				<path style="fill:#FFFFFF;stroke:#263238;stroke-linecap:round;stroke-linejoin:round;stroke-miterlimit:10;" d="
					M138.592,327.642c0,0-24.12-3.689-35.186,0.284"/>
			</g>
		</g>
		<g>
			<path style="fill:#FFFFFF;stroke:#263238;stroke-linecap:round;stroke-linejoin:round;stroke-miterlimit:10;" d="
				M464.221,420.339c7.791-22.251,12.339-57.723,12.339-57.723H91.91c6.984,23.525,20.747,47.034,27.468,57.723H464.221z"/>
			<path style="fill:#263238;stroke:#263238;stroke-linecap:round;stroke-linejoin:round;stroke-miterlimit:10;" d="
				M475.089,372.659c0.963-6.084,1.472-10.042,1.472-10.042H91.91c0.998,3.361,2.137,6.719,3.371,10.042H475.089z"/>
			<path style="fill:#FFFFFF;stroke:#263238;stroke-linecap:round;stroke-linejoin:round;stroke-miterlimit:10;" d="
				M490.146,366.598H79.818l0,0c6.859-7.902,16.808-12.44,27.271-12.44h355.786C473.338,354.157,483.287,358.696,490.146,366.598
				L490.146,366.598z"/>
		</g>
	</g>
</g>
<g id="Candles">
	<g>
		
			<rect x="364.226" y="302.316" style="fill:#FFFFFF;stroke:#263238;stroke-linecap:round;stroke-linejoin:round;stroke-miterlimit:10;" width="83.878" height="118.024"/>
		<path style="fill:#FFFFFF;stroke:#263238;stroke-linecap:round;stroke-linejoin:round;stroke-miterlimit:10;" d="M411.732,293.037
			c0,5.124-2.492,9.279-5.567,9.279c-3.075,0-5.567-4.154-5.567-9.279c0-5.124,2.492-18.186,5.567-18.186
			C409.24,274.851,411.732,287.913,411.732,293.037z"/>
	</g>
	<g>
		
			<rect x="298.3" y="335.353" style="fill:#FFFFFF;stroke:#263238;stroke-linecap:round;stroke-linejoin:round;stroke-miterlimit:10;" width="60.399" height="84.986"/>
		<path style="fill:#FFFFFF;stroke:#263238;stroke-linecap:round;stroke-linejoin:round;stroke-miterlimit:10;" d="M332.508,328.672
			c0,3.69-1.795,6.681-4.009,6.681s-4.009-2.991-4.009-6.681s1.795-13.095,4.009-13.095S332.508,324.982,332.508,328.672z"/>
	</g>
</g>
<g id="Bath_Bombs">
	<g>
		<g>
			<ellipse style="fill:#263238;" cx="557.197" cy="430.171" rx="132.899" ry="18.653"/>
			<path style="fill:#FFFFFF;stroke:#263238;stroke-linecap:round;stroke-linejoin:round;stroke-miterlimit:10;" d="
				M708.654,422.528c0,8.856-67.133,20.353-149.945,20.353s-149.945-11.497-149.945-20.353c0-8.856,67.133-16.035,149.945-16.035
				S708.654,413.672,708.654,422.528z"/>
			<path style="fill:#FFFFFF;stroke:#263238;stroke-linecap:round;stroke-linejoin:round;stroke-miterlimit:10;" d="
				M695.883,422.022c0,5.731-61.415,14.695-137.175,14.695s-137.175-8.964-137.175-14.695c0-5.731,61.415-10.377,137.175-10.377
				S695.883,416.291,695.883,422.022z"/>
		</g>
		<g>
			
				<ellipse transform="matrix(0.7071 -0.7071 0.7071 0.7071 -77.1413 518.6038)" style="fill:#FFFFFF;stroke:#263238;stroke-linecap:round;stroke-linejoin:round;stroke-miterlimit:10;" cx="587.44" cy="352.42" rx="70.541" ry="70.541"/>
			<g>
				<path style="fill:#FFFFFF;stroke:#263238;stroke-linecap:round;stroke-linejoin:round;stroke-miterlimit:10;" d="
					M602.059,397.02c-11.945,6.506-22.482,17.383-22.419,25.505c9.595,1.073,19.563,0.204,29.353-2.937
					c5.832-1.871,11.25-4.432,16.197-7.56C621.966,404.254,614.248,390.381,602.059,397.02z"/>
				<path style="fill:#FFFFFF;stroke:#263238;stroke-linecap:round;stroke-linejoin:round;stroke-miterlimit:10;" d="
					M520.272,373.972c7.626,23.765,26.674,40.667,49.129,46.631c-3.595-9.523-9.714-20.171-20.001-26.127
					C527.797,381.967,530.091,385.407,520.272,373.972z"/>
				<path style="fill:#FFFFFF;stroke:#263238;stroke-linecap:round;stroke-linejoin:round;stroke-miterlimit:10;" d="
					M517.284,359.887c0.327,3.04,0.875,6.087,1.614,9.126c6.11-2.554,12.718-4.212,16.278,1.328
					c7.397,11.513,14.794,23.026,19.862,18.622c5.067-4.403,3.784-14.175-4.785-20.683c0,0-6.019-10.104-0.319-21.19
					c5.7-11.087-11.136-26.051-19.354-14.156c-8.218,11.895,3.82,32.102-12.572,27.178
					C517.754,360.037,517.531,359.963,517.284,359.887z"/>
				<path style="fill:#FFFFFF;stroke:#263238;stroke-linecap:round;stroke-linejoin:round;stroke-miterlimit:10;" d="
					M605.61,284.271c-3.124,5.354-6.458,12.505-8.091,20.704c-3.546,17.801,24.234,26.477,28.255,15.929
					c2.524-6.619,8.775-12.974,13.083-16.792C629.82,294.507,618.259,287.657,605.61,284.271z"/>
				<path style="fill:#FFFFFF;stroke:#263238;stroke-linecap:round;stroke-linejoin:round;stroke-miterlimit:10;" d="
					M654.607,330.867c-0.702-2.188-1.509-4.313-2.398-6.382c-5.276,2.73-12.181,7.058-15.743,12.429
					c-6.239,9.408-26.082,13.924-37.138,5.436c-11.055-8.487-4.152-27.366-13.466-41.967c-4.453-6.982-9.618-13.514-16.682-16.098
					c-1.099,0.296-2.198,0.614-3.293,0.966c-22.77,7.306-39.241,25.1-45.827,46.328c15.494-7.545,33.023-31.15,44.361-8.579
					c12.815,25.512-21.153,46.595,6.532,63.633c27.685,17.038,51.294-24.791,69.32,8.307c0.479,0.879,0.938,1.732,1.392,2.578
					C656.546,379.593,662.253,354.694,654.607,330.867z"/>
			</g>
		</g>
		<g>
			
				<ellipse transform="matrix(0.7071 -0.7071 0.7071 0.7071 -114.7668 479.0172)" style="fill:#92E3A9;stroke:#263238;stroke-linecap:round;stroke-linejoin:round;stroke-miterlimit:10;" cx="520.841" cy="378.044" rx="44.916" ry="44.916"/>
			<g>
				<path style="fill:#FFFFFF;stroke:#263238;stroke-linecap:round;stroke-linejoin:round;stroke-miterlimit:10;" d="
					M550.727,377.858c1.62,8.508,6.166,17.012,11.102,18.555c2.517-5.609,3.93-11.822,3.93-18.368c0-3.9-0.499-7.683-1.433-11.291
					C558.985,367.195,549.073,369.176,550.727,377.858z"/>
				<path style="fill:#92E3A9;stroke:#263238;stroke-linecap:round;stroke-linejoin:round;stroke-miterlimit:10;" d="
					M520.841,422.961c15.892,0,29.846-8.261,37.83-20.715c-6.473,0.327-14.119,1.966-19.732,7.044
					C527.153,419.954,529.685,419.232,520.841,422.961z"/>
				<path style="fill:#92E3A9;stroke:#263238;stroke-linecap:round;stroke-linejoin:round;stroke-miterlimit:10;" d="
					M511.721,422.032c1.907,0.393,3.861,0.654,5.847,0.797c-0.36-4.202-0.079-8.531,3.972-9.611
					c8.419-2.245,16.838-4.49,15.155-8.419c-1.684-3.929-7.858-5.052-13.471-1.122c0,0-7.297,1.684-12.91-3.929
					c-5.613-5.613-17.961,1.684-12.348,8.98c5.613,7.297,20.206,3.929,14.032,12.91
					C511.903,421.776,511.814,421.897,511.721,422.032z"/>
				<path style="fill:#92E3A9;stroke:#263238;stroke-linecap:round;stroke-linejoin:round;stroke-miterlimit:10;" d="
					M483.059,353.77c2.639,2.936,6.326,6.348,10.979,8.933c10.103,5.613,20.767-9.542,15.154-14.032
					c-3.522-2.818-6.159-7.844-7.636-11.199C493.974,341.083,487.572,346.76,483.059,353.77z"/>
				<path style="fill:#92E3A9;stroke:#263238;stroke-linecap:round;stroke-linejoin:round;stroke-miterlimit:10;" d="
					M520.841,333.128c-1.463,0-2.908,0.076-4.336,0.212c0.629,3.73,1.909,8.758,4.473,11.963c4.49,5.613,3.368,18.522-3.929,23.574
					c-7.297,5.051-17.4-2.806-28.064,0c-5.099,1.342-10.065,3.202-13.005,6.982c-0.035,0.724-0.055,1.452-0.055,2.185
					c0,15.227,7.584,28.674,19.173,36.797c-1.56-10.862-12.461-26.082,3.429-28.565c17.961-2.806,24.135,21.89,39.851,8.419
					c15.716-13.471-5.052-35.922,18.522-40.412c0.626-0.119,1.233-0.232,1.834-0.342
					C550.761,341.432,536.775,333.128,520.841,333.128z"/>
			</g>
		</g>
		<g>
			
				<circle style="fill:#BDBDBD;stroke:#263238;stroke-linecap:round;stroke-linejoin:round;stroke-miterlimit:10;" cx="640.194" cy="369.435" r="53.525"/>
			<path style="fill:#D9D9D9;stroke:#263238;stroke-linecap:round;stroke-linejoin:round;stroke-miterlimit:10;" d="
				M629.159,317.055c-1.098,0.23-2.18,0.503-3.253,0.799c20.941,6.24,36.326,26.959,36.326,51.581
				c0,24.622-15.385,45.341-36.326,51.581c1.072,0.296,2.154,0.569,3.253,0.799c22.446-5.087,39.304-26.603,39.304-52.381
				C668.462,343.658,651.605,322.142,629.159,317.055z"/>
		</g>
		<g>
			
				<ellipse transform="matrix(0.9604 -0.2787 0.2787 0.9604 -87.3375 172.9703)" style="fill:#FFFFFF;stroke:#263238;stroke-linecap:round;stroke-linejoin:round;stroke-miterlimit:10;" cx="564.759" cy="393.697" rx="37.283" ry="37.74"/>
			
				<ellipse transform="matrix(0.771 -0.6369 0.6369 0.771 -121.0784 445.7455)" style="fill:#FFFFFF;stroke:#263238;stroke-linecap:round;stroke-linejoin:round;stroke-miterlimit:10;" cx="559.211" cy="391.216" rx="35.78" ry="34.779"/>
			
				<ellipse transform="matrix(0.3338 -0.9426 0.9426 0.3338 3.8335 784.6769)" style="fill:#FFFFFF;stroke:#263238;stroke-linecap:round;stroke-linejoin:round;stroke-miterlimit:10;" cx="557.085" cy="389.626" rx="32.766" ry="32.853"/>
		</g>
		<g>
			<path style="fill:#263238;" d="M477.877,404.447c0,0-23.566-3.625-32.025-2.417s-16.315,7.855-16.315,7.855
				s3.021,2.417,9.064,2.417c6.043,0,21.149-3.021,21.149-3.021s-13.898,2.417-19.336,7.855c-5.438,5.438-6.043,15.106-6.043,15.106
				s4.834,0.604,13.293-3.626c8.459-4.23,16.315-17.523,16.315-17.523s-0.604,1.813,0.604,8.46c1.208,6.647,4.834,9.064,4.834,9.064
				s3.625-4.834,3.021-9.064c-0.604-4.23-1.208-9.064-1.208-9.064s2.417,3.626,12.689,4.834s16.919-9.064,16.919-9.064
				S491.775,397.8,477.877,404.447z"/>
			<path style="fill:#263238;" d="M477.273,406.863c0,0-3.625-12.689-12.689-16.919c-9.064-4.23-17.523-4.23-17.523-4.23
				s2.417,13.293,9.668,18.732C463.98,409.885,477.273,406.863,477.273,406.863z"/>
		</g>
		<path style="fill:#263238;" d="M636.19,416.531c0,0-3.625-10.876-8.459-16.919c-4.834-6.042-17.523-10.272-17.523-10.272
			s-1.813,7.251,1.208,13.898c3.021,6.647,16.919,12.085,16.919,12.085s-6.647-1.208-13.294,0
			c-6.647,1.208-14.502,10.272-14.502,10.272s13.293,3.021,22.961,1.208c9.668-1.813,10.877-6.042,10.877-6.042
			s-3.021,4.23,5.438,7.251c8.46,3.021,21.149-3.625,21.149-3.625s-5.438-6.647-12.689-9.064
			C641.024,412.906,636.19,416.531,636.19,416.531z"/>
	</g>
</g>
</svg>
