<svg width="3000" height="2000" viewBox="0 0 3000 2000" fill="none" xmlns="http://www.w3.org/2000/svg">
<path opacity="0.2" d="M2697.32 1681.23C2697.24 1681.82 2697.12 1682.41 2697.02 1683.01L2159.23 1681.07L1298.76 1677.99L919.836 1676.63L838.167 1676.33L294.638 1674.4C294.638 1674.4 291.973 1669.26 287.56 1659.65C285.276 1654.72 282.54 1648.56 279.453 1641.32C269.978 1619.09 257.273 1586.48 245.02 1546.23C236.532 1518.37 228.255 1486.84 221.402 1452.52C221.007 1450.56 220.612 1448.55 220.232 1446.55C218.089 1435.49 216.115 1424.17 214.31 1412.58C213.647 1408.29 213.013 1403.92 212.393 1399.55C211.575 1393.71 210.814 1387.82 210.108 1381.85C208.529 1368.67 207.232 1355.22 206.259 1341.53C203.284 1299.72 203.341 1255.7 207.937 1210.65C208.811 1202.02 209.854 1193.32 211.081 1184.61C215.325 1154.45 221.699 1123.88 230.638 1093.28C240.748 1058.62 254.171 1023.88 271.529 989.561C294.47 944.172 324.305 899.504 362.474 856.639C427.927 783.15 491.449 733.687 552.219 701.326C560.665 696.814 569.055 692.655 577.388 688.792C667.192 647.253 750.579 641.824 824.775 649.213C829.273 649.649 833.742 650.144 838.169 650.68C845.643 651.582 853.018 652.611 860.293 653.725C865.186 654.472 870.036 655.277 874.83 656.094C957.23 670.321 1025.94 694.84 1076.42 691.231C1190.53 683.067 1239.43 465.49 1490.86 341.648C1526.34 324.178 1565.85 308.569 1610.14 295.682C1625.16 291.296 1640.76 287.235 1656.93 283.513C1696.53 274.418 1738.52 267.213 1781.69 262.25C1796.37 260.544 1811.19 259.12 1826.09 257.949C1843.07 256.624 1860.17 255.651 1877.33 255.045C1911.14 253.86 1945.14 254.114 1978.79 255.989C2028 258.682 2076.48 264.816 2122.57 274.855C2134.98 277.563 2147.21 280.551 2159.23 283.822C2365.22 339.899 2510.85 481.576 2433.04 755.752C2432.06 759.234 2431.04 762.731 2429.97 766.243C2418.11 805.709 2401.68 847.868 2380.21 892.847C2371.72 910.641 2362.44 928.886 2352.35 947.583C2166.09 1292.46 2652.46 1191.85 2701.78 1530.26C2708.01 1573 2707.28 1622.71 2697.32 1681.23Z" fill="#ED9F4A"/>
<path d="M2433.04 755.218C2426.61 755.515 2420.3 754.203 2414.12 751.087C2383.99 735.873 2362.15 714.018 2344.55 691.26C2342.24 658.534 2348.64 617.249 2348.64 617.249C2344.59 627.669 2328.76 642.023 2317.21 651.498C2292.7 613.259 2274.02 582.591 2239.55 590.36C2175.62 604.769 2096.09 585.129 2073.69 519.774C2087.99 494.507 2113.65 478.123 2113.65 478.123C2094.88 479.956 2077.23 487.358 2064.06 494.48C2035.74 440.759 1966.71 425.403 1966.71 425.403C1963.54 424.515 1960.46 423.528 1957.49 422.428C1957.67 383.611 1967.47 346.993 1967.47 346.993C1940.41 361.107 1927.75 383.949 1921.84 401.447C1874.18 359.556 1872.47 284.403 1877.33 254.524C1960.58 251.606 2044.97 257.443 2122.57 274.335C2134.98 277.028 2147.21 280.018 2159.23 283.303C2365.22 339.379 2510.85 481.043 2433.04 755.218Z" fill="#C1E0E4"/>
<path opacity="0.4" d="M2159.23 283.303C2147.21 280.018 2134.98 277.029 2122.57 274.335V1640.8H919.836H874.828V655.574C862.899 653.515 850.675 651.668 838.167 650.145V1640.8H279.453C288.519 1662.07 296.29 1677.46 296.29 1677.46H919.836L2159.23 1677.46V283.303Z" fill="#ED9F4A"/>
<path d="M210.108 1381.32C210.814 1387.28 211.575 1393.19 212.393 1399.03C221.107 1392.37 228.721 1387.27 228.721 1387.27C223.179 1384.22 216.594 1382.39 210.108 1381.32Z" fill="#599DAD"/>
<path d="M325.672 1439.68C325.672 1439.68 260.445 1452.67 252.084 1446.04C243.709 1439.4 305.664 1424.04 305.664 1424.04C292.706 1408 238.082 1388.3 238.082 1388.3C238.082 1388.3 226.478 1400.92 214.31 1412.06C216.115 1423.63 218.089 1434.97 220.232 1446.03C220.613 1448.03 221.008 1450.03 221.402 1452C228.255 1486.31 236.531 1517.84 245.02 1545.7C266.664 1547.38 293.412 1536.34 293.412 1536.34C275.702 1526.81 259.135 1494.81 262.928 1489.23C266.721 1483.63 301.985 1520.49 308.979 1524.78C315.958 1529.05 337.052 1527.84 353.705 1499.41C370.356 1471 325.672 1439.68 325.672 1439.68Z" fill="#599DAD"/>
<path d="M544.519 1129.66C525.54 1134.41 403.759 1132.83 406.917 1148.64C410.09 1164.46 492.335 1189.77 538.189 1175.53C538.189 1175.53 487.584 1300.47 421.159 1294.15C354.733 1287.82 334.175 1246.71 293.045 1243.53C251.929 1240.38 221.881 1251.44 242.44 1262.51C262.998 1273.59 332.596 1266.15 365.802 1294.38C399.022 1322.62 425.897 1340.02 364.223 1352.67C319.864 1361.76 250.153 1360.24 206.26 1341.01C203.285 1299.19 203.342 1255.18 207.938 1210.13C208.812 1201.49 209.855 1192.8 211.082 1184.09C215.326 1153.91 221.7 1123.36 230.639 1092.76C240.749 1058.09 254.172 1023.36 271.53 989.04C306.54 976.025 344.921 964.59 367.382 966.762C367.382 966.762 289.888 1098.03 315.197 1094.88C340.493 1091.7 427.49 958.852 427.49 958.852C427.49 958.852 555.59 935.135 576.147 1011.05C596.718 1086.97 563.498 1124.92 544.519 1129.66Z" fill="#6BB7BF"/>
<path d="M517.25 1034.9C342.592 1105.59 252.986 1164.9 207.937 1210.13C208.811 1201.49 209.854 1192.8 211.081 1184.09C315.845 1101.39 507.549 1038.07 517.25 1034.9Z" fill="#599DAD"/>
<path d="M664.413 1497.07C664.526 1497.05 664.694 1497.04 664.907 1497.02C664.737 1497.04 664.582 1497.05 664.413 1497.07Z" fill="#CFE1E5"/>
<path d="M665.385 1496.98C665.823 1496.94 666.246 1496.9 666.683 1496.87C666.176 1496.91 665.752 1496.95 665.385 1496.98Z" fill="#CFE1E5"/>
<path d="M2123.73 1677.46L686.91 1677.46C686.87 1670.95 692.14 1665.65 698.657 1665.65H2111.91C2118.44 1665.65 2123.73 1670.94 2123.73 1677.46Z" fill="#466AA5"/>
<path d="M2005.22 1219.49C1986.9 1209.94 1978.92 1230.49 1971.96 1233.65C1965.01 1236.82 1944.75 1232.4 1936.07 1245.68C1930.13 1254.75 1919.37 1262.3 1919.37 1262.3C1863.31 1294.91 1783.3 1318.55 1768.01 1319.38C1763.79 1319.6 1752.41 1301.58 1737.81 1274.96C1699.56 1205.26 1639.08 1076.59 1626.36 1062.2C1621.12 1056.28 1610.64 1050.86 1598.5 1046.15C1598.49 1046.11 1598.48 1046.08 1598.48 1046.08C1598.48 1046.08 1598.33 1046.05 1598.07 1045.98C1569.74 1035.05 1532.67 1028.07 1532.11 1027.97C1532.11 1027.97 1532.11 1027.97 1532.1 1027.97C1520.3 1024.48 1511.98 1013.98 1511.19 1001.69C1509.75 979.174 1511.1 953.281 1511.1 953.281L1426.92 955.169C1429.33 972.332 1427.62 991.978 1425.48 1007.99C1424.22 1017.46 1417.31 1025.15 1408.04 1027.49C1407.83 1027.53 1363.09 1036.33 1334.51 1049.42C1325.96 1053.33 1318.85 1057.63 1314.81 1062.2C1303.35 1075.16 1253.03 1181.09 1215.21 1252.88C1215.21 1252.88 1215.21 1252.88 1215.21 1252.9C1195.07 1291.12 1178.48 1319.67 1173.18 1319.38C1157.89 1318.55 1077.87 1294.91 1021.82 1262.3C1021.82 1262.3 1011.05 1254.75 1005.12 1245.67C996.423 1232.4 976.18 1236.82 969.224 1233.65C962.25 1230.49 954.285 1209.94 935.953 1219.49C929.363 1222.93 941.045 1251.1 941.045 1251.1C952.328 1277.59 976.592 1276.98 987.004 1275.56C988.976 1275.28 991.911 1276.58 994.984 1278.46C1001.34 1282.38 1008.25 1288.8 1008.25 1288.8C1008.25 1288.8 1086.46 1366.7 1148.01 1389.81C1148.24 1389.92 1148.49 1390 1148.73 1390.07C1149.3 1390.29 1149.86 1390.49 1150.41 1390.69C1160.93 1394.43 1170.92 1396.49 1179.87 1396.19C1180.35 1396.17 1180.81 1396.14 1181.27 1396.13C1182.18 1396.07 1183.1 1395.99 1183.99 1395.88C1213.31 1392.34 1248.37 1360.66 1281.12 1321.76C1285.09 1317.05 1289.02 1312.22 1292.91 1307.33C1310.49 1285.24 1327.07 1261.75 1341.35 1240.29C1351.81 1301.4 1369.81 1375.24 1374.4 1393.77C1374.59 1395.53 1374.78 1397.29 1374.96 1399.04C1352.56 1435.71 1320.63 1488.88 1320.63 1488.88C1320.63 1488.88 1644.58 1503.4 1641.53 1488.88C1638.47 1474.36 1595.66 1401.73 1592.6 1392.56C1590.13 1385.15 1603.15 1322.38 1615.88 1263.77C1628.79 1282.2 1642.94 1301.17 1657.59 1318.8C1660.28 1322.04 1663.01 1325.23 1665.73 1328.38C1696.83 1364.2 1731.3 1388.49 1758.94 1391.83C1819.79 1399.17 1932.92 1288.8 1932.92 1288.8C1932.92 1288.8 1937.08 1284.95 1941.92 1281.38C1944.97 1279.15 1948.28 1277.03 1951 1276.06C1951.14 1276.02 1951.22 1275.97 1951.26 1275.97H1951.28C1952.37 1275.6 1953.34 1275.45 1954.17 1275.56C1964.6 1276.98 1988.86 1277.59 2000.13 1251.1C2000.13 1251.1 2011.81 1222.93 2005.22 1219.49Z" fill="#FFB27D"/>
<path d="M1748.82 1564.53C1671.14 1629.63 1559.78 1665.04 1559.78 1665.04C1559.78 1665.04 1470.13 1666.76 1368.47 1665.04C1269.73 1663.37 1173.17 1541.69 1173.17 1541.69C1173.17 1541.69 1255.5 1540.61 1278.09 1521.39C1293.83 1507.99 1312.83 1485.71 1331.3 1461.52C1344.59 1444.13 1357.59 1425.76 1368.91 1408.95C1368.91 1408.95 1392.23 1431.8 1487.01 1429.34C1581.78 1426.88 1604.86 1416.37 1604.86 1416.37C1604.86 1416.37 1616.04 1430.1 1630.8 1447.49C1648.61 1468.44 1671.61 1494.71 1686.43 1508.63C1692.94 1514.73 1748.82 1564.53 1748.82 1564.53Z" fill="white"/>
<path d="M1472.02 822.122C1472.02 822.122 1507.7 821.476 1515.82 833.43C1523.93 845.382 1525.02 858.736 1529.1 865.473C1533.19 872.208 1532.49 879.756 1532.49 879.756C1532.49 879.756 1563.21 801.116 1492.3 816.778C1487.18 817.908 1472.02 822.122 1472.02 822.122Z" fill="#B5453C"/>
<path d="M1029.51 1304.24C1029.89 1304.12 1030.29 1304 1030.68 1303.89C1030.47 1303.96 1030.08 1304.1 1029.51 1304.24Z" fill="#5153A0"/>
<path d="M1748.82 1564.53C1671.14 1629.63 1559.78 1665.04 1559.78 1665.04C1559.78 1665.04 1470.13 1666.76 1368.47 1665.04C1269.73 1663.37 1173.17 1541.69 1173.17 1541.69C1173.17 1541.69 1255.5 1540.61 1278.09 1521.39C1293.83 1507.99 1312.83 1485.71 1331.3 1461.52C1335.53 1464.2 1424.77 1520.19 1477.63 1517.44C1531.36 1514.65 1629.27 1448.52 1630.8 1447.49C1648.61 1468.44 1671.61 1494.71 1686.43 1508.63C1692.94 1514.73 1748.82 1564.53 1748.82 1564.53Z" fill="#BED4F4"/>
<path d="M1759.52 1555.94C1735.87 1576.42 1665.75 1598.92 1599.67 1616.73C1581.15 1621.72 1562.92 1626.33 1546.13 1630.45C1530.98 1635.17 1500.24 1644.92 1467.29 1656.39C1420.79 1672.58 1400.46 1664.85 1377.42 1660.78C1354.38 1656.71 1328.37 1672.83 1294.25 1660.35C1260.12 1647.87 1268.75 1580.66 1268.75 1580.66C1280.3 1573.08 1325.24 1570.89 1355.66 1592.74C1386.07 1614.58 1426.85 1610.51 1426.85 1610.51C1428.41 1610.68 1432.12 1608.81 1437.2 1605.63C1437.2 1605.63 1466.78 1588.32 1521.32 1544.9C1538.86 1530.93 1558.99 1514.25 1581.56 1494.57C1624.58 1457.05 1661.69 1407.7 1704.56 1398.6C1757.6 1387.35 1785.83 1399.23 1797.31 1406.58C1801.31 1409.14 1803.99 1413.32 1804.58 1418.03C1807.32 1439.81 1811.59 1510.9 1759.52 1555.94Z" fill="#F2A672"/>
<path d="M1599.68 1616.73C1581.15 1621.72 1562.92 1626.33 1546.13 1630.45C1530.98 1635.17 1500.24 1644.92 1467.29 1656.39C1420.8 1672.58 1400.46 1664.85 1377.42 1660.78C1354.38 1656.71 1328.37 1672.83 1294.25 1660.35C1260.12 1647.87 1268.75 1580.66 1268.75 1580.66C1280.31 1573.08 1325.24 1570.89 1355.66 1592.74C1386.07 1614.58 1426.85 1610.51 1426.85 1610.51C1428.41 1610.68 1432.12 1608.81 1437.2 1605.63C1437.2 1605.63 1466.79 1588.32 1521.32 1544.9C1531.69 1565.24 1552.59 1594.13 1592.6 1612.92C1595.18 1614.13 1597.54 1615.4 1599.68 1616.73Z" fill="#ABBFDB"/>
<path d="M1646.55 1596.75C1646.55 1596.75 1645.01 1655.28 1623.53 1662.25C1594.02 1671.82 1570.83 1656.48 1546.47 1660.95C1522.1 1665.41 1502.35 1671.77 1453.27 1654.62C1420.69 1643.23 1390.12 1633.44 1373.26 1628.14C1365.01 1625.92 1356.44 1623.58 1347.73 1621.12C1282.52 1602.73 1208.32 1578.13 1184.59 1555.94C1127.19 1502.23 1149.19 1406.92 1149.19 1406.92C1149.19 1406.92 1167.87 1383.1 1235.43 1398.6C1275.08 1407.7 1316.02 1446.99 1355.63 1484.3C1372.07 1499.77 1387.65 1514.1 1401.93 1527.02C1451.69 1572.01 1485.79 1599.94 1485.79 1599.94L1485.64 1600.24C1490.82 1603.49 1494.61 1605.37 1496.22 1605.21C1496.22 1605.21 1522.15 1615.49 1567.2 1600.34C1598.64 1589.76 1634.38 1588.68 1646.55 1596.75Z" fill="#FFB27D"/>
<path d="M1428.08 973.33C1428.08 973.33 1444.7 1011.86 1472.02 1009.57C1499.33 1007.28 1510.56 972.468 1510.56 972.468L1428.08 973.33Z" fill="#E8945B"/>
<path d="M1400.29 926.764C1400.29 926.764 1387.27 899.577 1379.26 867.942C1373.55 845.356 1379.09 759.71 1465.19 765.782C1465.19 765.782 1490.12 766.437 1514.52 780.473C1533.92 791.636 1562.57 816.692 1538.05 892.847L1532.09 918.405L1400.29 926.764Z" fill="#2E3552"/>
<path d="M1520.66 963.096C1498.37 984.285 1470.67 1012.53 1411.29 959.974C1399.67 949.692 1395.59 928.662 1394.98 906.032C1394.24 879.245 1392.76 868.1 1395.79 852.668C1399.4 834.207 1415.22 825.908 1448.02 823.148C1508.23 818.1 1533.06 831.5 1534.48 861.609C1537.56 926.764 1543.33 941.545 1520.66 963.096Z" fill="#FFB27D"/>
<path d="M1428.08 797.054C1393.52 797.819 1375.49 883.437 1391.55 879.755C1407.6 876.073 1439.32 836.041 1439.32 836.041C1436.65 856.681 1412.95 875.792 1412.95 875.792C1449.64 862.031 1465.7 822.107 1465.7 822.107C1465.7 822.107 1462.64 796.29 1428.08 797.054Z" fill="#2E3552"/>
<path d="M1530.68 818.459C1513.86 806.991 1465.7 822.107 1465.7 822.107C1465.7 822.107 1482.52 822.28 1489.4 834.511C1496.28 846.741 1518.66 881.615 1538.04 892.846C1538.04 892.846 1547.49 829.925 1530.68 818.459Z" fill="#2E3552"/>
<path d="M1941.92 1281.38C1937.07 1284.95 1932.92 1288.8 1932.92 1288.8C1932.92 1288.8 1818.87 1401.76 1758.02 1394.42C1730.38 1391.07 1696.82 1364.2 1665.72 1328.38C1663 1325.23 1660.28 1322.04 1657.59 1318.8L1665.98 1304.09L1708.99 1308.78C1708.99 1308.78 1746.51 1341.81 1759.75 1365.24C1770.41 1384.1 1885.73 1315.27 1932.14 1287.27C1935.88 1285.02 1939.17 1283.04 1941.92 1281.38Z" fill="#F2A672"/>
<path d="M2000.13 1251.1C1988.86 1277.59 1964.59 1276.98 1954.17 1275.56C1953.34 1275.45 1952.36 1275.6 1951.28 1275.97H1951.26C1951.22 1275.97 1951.14 1276.02 1951 1276.06C1951 1276.06 1945.77 1263.07 1976.35 1254.66C2006.93 1246.25 2005.22 1219.49 2005.22 1219.49C2011.81 1222.93 2000.13 1251.1 2000.13 1251.1Z" fill="#F2A672"/>
<path d="M1292.9 1307.33C1289.02 1312.22 1285.09 1317.05 1281.12 1321.76C1248.37 1360.66 1213.31 1392.34 1183.98 1395.88C1183.1 1395.99 1182.18 1396.07 1181.26 1396.13C1180.8 1396.14 1180.34 1396.17 1179.87 1396.19C1171.16 1396.43 1161.16 1394.39 1150.41 1390.69C1149.86 1390.49 1149.29 1390.29 1148.73 1390.07C1148.48 1390 1148.24 1389.92 1148.01 1389.81C1086.45 1366.7 1008.25 1288.8 1008.25 1288.8C1008.25 1288.8 1001.34 1282.38 994.979 1278.46C999.353 1280.57 1004.32 1283.08 1009.73 1285.89C1064.32 1314.16 1165.28 1372.66 1184.88 1358.23C1212.41 1337.94 1249.1 1288.8 1249.1 1288.8L1292.9 1307.33Z" fill="#F2A672"/>
<path d="M1626.36 1062.2C1621.86 1055.69 1610.63 1050.85 1598.5 1046.15C1582.17 1039 1552.37 1032.36 1552.37 1032.36C1552.37 1032.36 1556.67 1096.42 1469.32 1097.18C1381.98 1097.95 1384.36 1032.93 1384.36 1032.93L1356.71 1040.54C1354.58 1041.12 1352.48 1041.85 1350.44 1042.71L1334.5 1049.42C1325.96 1053.33 1318.85 1057.63 1314.81 1062.2C1303.35 1075.17 1211 1239.09 1173.17 1310.89C1173.17 1310.89 1088.57 1290.09 1088.57 1290.11C1088.67 1290.85 1057.32 1383.18 1068.57 1415.41C1070.17 1419.97 1074.95 1422.6 1079.66 1421.55L1205.67 1393.36C1217.94 1385.08 1265.67 1347 1281.11 1321.76C1301.95 1297.04 1321.83 1269.38 1338.72 1244.2C1339.37 1243.23 1340.01 1242.27 1340.65 1241.31L1342.38 1249.44L1368.91 1408.95C1402.67 1438.5 1439.7 1432.95 1470.58 1435C1474.96 1435.29 1482.51 1438.88 1486.67 1439L1561.67 1441.5C1592.1 1442.46 1613.06 1434.9 1604.86 1416.37C1597.17 1399 1601.07 1334.33 1601.07 1334.33C1601.07 1334.33 1609.76 1300.37 1616.95 1266.54C1617.02 1266.22 1617.08 1265.9 1617.15 1265.58C1632.1 1286.84 1690.36 1382.41 1757.39 1394.79C1792.36 1398.91 1855.08 1411.44 1878.17 1396.22C1871.23 1368.44 1857.35 1299.62 1862.65 1289.76C1822.6 1303.37 1787.15 1291.74 1756.67 1267.86C1680.63 1208.28 1706.67 1178.5 1626.36 1062.2Z" fill="white"/>
<path d="M1148.35 1378.98L1066.54 1387.16C1065.3 1400 1063.42 1413 1073.17 1423C1193.17 1401.5 1222.14 1408.62 1281.12 1321.76C1301.95 1297.04 1321.83 1269.38 1338.72 1244.2C1327.92 1243.02 1270.18 1299.91 1232.15 1338.75C1209.8 1361.57 1180.14 1375.8 1148.35 1378.98Z" fill="#BED4F4"/>
<path d="M1646.55 1596.75C1646.55 1596.75 1645.01 1655.28 1623.53 1662.25C1594.02 1671.82 1570.83 1656.48 1546.47 1660.95C1522.1 1665.41 1502.35 1671.77 1453.27 1654.62C1420.69 1643.23 1390.12 1633.44 1373.26 1628.14C1365.01 1625.92 1356.44 1623.58 1347.73 1621.12C1360.42 1610.54 1392.08 1579.55 1401.93 1527.02C1451.69 1572.01 1485.79 1599.94 1485.79 1599.94L1485.64 1600.24C1490.82 1603.49 1494.61 1605.37 1496.22 1605.21C1496.22 1605.21 1522.15 1615.5 1567.2 1600.34C1598.64 1589.76 1634.38 1588.68 1646.55 1596.75Z" fill="#E9F3FE"/>
<mask id="mask0_11_557" style="mask-type:luminance" maskUnits="userSpaceOnUse" x="204" y="254" width="2502" height="1430">
<path d="M2697.32 1681.23C2697.24 1681.82 2697.12 1682.41 2697.02 1683.01L2159.23 1681.07L1298.76 1677.99L919.836 1676.63L838.167 1676.33L294.638 1674.4C294.638 1674.4 291.973 1669.26 287.56 1659.65C285.276 1654.72 282.54 1648.56 279.453 1641.32C269.978 1619.09 257.273 1586.48 245.02 1546.23C236.532 1518.37 228.255 1486.84 221.402 1452.52C221.007 1450.56 220.612 1448.55 220.232 1446.55C218.089 1435.49 216.115 1424.17 214.31 1412.58C213.647 1408.29 213.013 1403.92 212.393 1399.55C211.575 1393.71 210.814 1387.82 210.108 1381.85C208.529 1368.67 207.232 1355.22 206.259 1341.53C203.284 1299.72 203.341 1255.7 207.937 1210.65C208.811 1202.02 209.854 1193.32 211.081 1184.61C215.325 1154.45 221.699 1123.88 230.638 1093.28C240.748 1058.62 254.171 1023.88 271.529 989.561C294.47 944.172 324.305 899.504 362.474 856.639C427.927 783.15 491.449 733.687 552.219 701.326C560.665 696.814 569.055 692.655 577.388 688.792C667.192 647.253 750.579 641.824 824.775 649.213C829.273 649.649 833.742 650.144 838.169 650.68C845.643 651.582 853.018 652.611 860.293 653.725C865.186 654.472 870.036 655.277 874.83 656.094C957.23 670.321 1025.94 694.84 1076.42 691.231C1190.53 683.067 1239.43 465.49 1490.86 341.648C1526.34 324.178 1565.85 308.569 1610.14 295.682C1625.16 291.296 1640.76 287.235 1656.93 283.513C1696.53 274.418 1738.52 267.213 1781.69 262.25C1796.37 260.544 1811.19 259.12 1826.09 257.949C1843.07 256.624 1860.17 255.651 1877.33 255.045C1911.14 253.86 1945.14 254.114 1978.79 255.989C2028 258.682 2076.48 264.816 2122.57 274.855C2134.98 277.563 2147.21 280.551 2159.23 283.822C2365.22 339.899 2510.85 481.576 2433.04 755.752C2432.06 759.234 2431.04 762.731 2429.97 766.243C2418.11 805.709 2401.68 847.868 2380.21 892.847C2371.72 910.641 2362.44 928.886 2352.35 947.583C2166.09 1292.46 2652.46 1191.85 2701.78 1530.26C2708.01 1573 2707.28 1622.71 2697.32 1681.23Z" fill="white"/>
</mask>
<g mask="url(#mask0_11_557)">
<path d="M2611.79 1694.46C2611.79 1694.46 2677.02 1707.45 2685.38 1700.82C2693.76 1694.18 2631.8 1678.83 2631.8 1678.83C2663.36 1651.56 2702.69 1642.83 2702.69 1642.83C2702.69 1642.83 2710.99 1655.7 2723.16 1666.84C2721.35 1678.42 2719.38 1689.75 2717.23 1700.81C2716.85 1702.81 2716.46 1704.81 2716.06 1706.79C2709.21 1741.09 2700.93 1772.62 2692.45 1800.48C2670.8 1802.16 2644.05 1791.12 2644.05 1791.12C2661.76 1781.59 2678.33 1749.6 2674.54 1744.01C2670.75 1738.41 2635.48 1775.27 2628.49 1779.56C2621.51 1783.83 2600.41 1782.62 2583.76 1754.19C2567.11 1725.78 2611.79 1694.46 2611.79 1694.46Z" fill="#599DAD"/>
<path d="M2392.95 1384.45C2411.93 1389.2 2533.71 1387.62 2530.55 1403.42C2527.38 1419.24 2445.13 1444.55 2399.28 1430.31C2399.28 1430.31 2449.88 1555.25 2516.31 1548.94C2582.73 1542.61 2603.29 1501.49 2644.42 1498.32C2685.54 1495.16 2715.58 1506.23 2695.03 1517.3C2674.47 1528.38 2604.87 1520.93 2571.67 1549.16C2538.45 1577.4 2511.57 1594.8 2573.24 1607.45C2617.6 1616.55 2687.31 1615.02 2731.21 1595.79C2734.18 1553.97 2734.13 1509.96 2729.53 1464.91C2728.66 1456.27 2727.61 1447.59 2726.38 1438.87C2722.14 1408.7 2715.77 1378.14 2706.83 1347.54C2696.72 1312.87 2683.29 1278.14 2665.94 1243.82C2630.93 1230.81 2592.55 1219.37 2570.08 1221.55C2570.08 1221.55 2647.58 1352.82 2622.27 1349.66C2596.97 1346.49 2509.98 1213.64 2509.98 1213.64C2509.98 1213.64 2381.88 1189.92 2361.32 1265.83C2340.75 1341.75 2373.97 1379.71 2392.95 1384.45Z" fill="#6BB7BF"/>
<path d="M2420.22 1289.68C2594.87 1360.38 2684.48 1419.68 2729.53 1464.91C2728.65 1456.27 2727.61 1447.59 2726.38 1438.87C2621.62 1356.17 2429.92 1292.85 2420.22 1289.68Z" fill="#599DAD"/>
</g>
<path d="M2792.01 1688.79H207.987C205.914 1688.79 204.218 1687.09 204.218 1685.02V1681.23C204.218 1679.16 205.914 1677.46 207.987 1677.46H2792.01C2794.08 1677.46 2795.78 1679.16 2795.78 1681.23V1685.02C2795.78 1687.09 2794.09 1688.79 2792.01 1688.79Z" fill="#2E3552"/>
<path d="M1465.7 808.667C1501.04 808.667 1529.7 780.013 1529.7 744.667C1529.7 709.321 1501.04 680.667 1465.7 680.667C1430.35 680.667 1401.7 709.321 1401.7 744.667C1401.7 780.013 1430.35 808.667 1465.7 808.667Z" fill="#2E3552"/>
<path d="M1349.22 775.611L1560.26 693.803L1558.11 688.428L1349.22 775.611Z" fill="#D86713"/>
<path d="M1568.44 686.637C1569.85 690.164 1568.13 694.163 1564.6 695.57C1561.07 696.976 1557.08 695.257 1555.67 691.73C1554.26 688.203 1555.98 684.204 1559.51 682.797C1563.04 681.39 1567.03 683.11 1568.44 686.637Z" fill="#6BB7BF"/>
<path d="M1568.93 775.611L1357.9 693.803L1360.04 688.428L1568.93 775.611Z" fill="#D86713"/>
<path d="M1349.71 686.637C1348.31 690.164 1350.03 694.163 1353.55 695.57C1357.08 696.976 1361.08 695.257 1362.49 691.73C1363.89 688.203 1362.17 684.204 1358.65 682.797C1355.12 681.39 1351.12 683.11 1349.71 686.637Z" fill="#6BB7BF"/>
<path d="M1465.7 799.667C1496.07 799.667 1520.7 775.043 1520.7 744.667C1520.7 714.291 1496.07 689.667 1465.7 689.667C1435.32 689.667 1410.7 714.291 1410.7 744.667C1410.7 775.043 1435.32 799.667 1465.7 799.667Z" fill="#2E3552"/>
<path d="M1867.35 1345.06L1881.19 1334.32C1881.19 1334.32 1887.17 1376.11 1878.17 1396.22L1876.02 1387.9C1872.77 1375.35 1870.13 1362.65 1868.12 1349.84L1867.35 1345.06Z" fill="#BED4F4"/>
<path d="M1617.15 1265.58C1617.15 1265.58 1679.06 1384.53 1764.87 1396.77C1842.17 1407.5 1861.17 1408.94 1878.17 1396.22C1878.17 1396.22 1869.17 1393 1863.17 1368C1863.17 1368 1731.14 1409.17 1617.15 1265.58Z" fill="#BED4F4"/>
<path d="M1552.37 1032.36L1368.91 1408.95C1368.91 1408.95 1582.17 1297.61 1617.15 1054.97C1617.15 1054.97 1591.91 1035.06 1552.37 1032.36Z" fill="#6BB7BF"/>
<path d="M1384.36 1032.94C1384.36 1032.94 1439.01 1142.75 1486.92 1166.71L1453.5 1235.31C1453.5 1235.31 1352.7 1160.85 1327.77 1052.76C1327.77 1052.76 1343.22 1042.54 1384.36 1032.94Z" fill="#599DAD"/>
<path d="M1368.91 1408.95C1368.91 1408.95 1520.17 1436.39 1601.92 1404.32C1601.92 1404.32 1616.75 1418.1 1615.21 1428.92C1615.21 1428.92 1548.08 1474.78 1354.12 1430.39C1354.12 1430.39 1360.14 1414.91 1368.91 1408.95Z" fill="#599DAD"/>
<path d="M1019.73 1665.65H992.728L1072.73 1540.64H1099.73L1019.73 1665.65Z" fill="#BC8662"/>
<path d="M1898.73 1665.65H1871.73L1791.73 1540.64H1818.73L1898.73 1665.65Z" fill="#BC8662"/>
<path d="M1949.07 1513.39H942.728V1540.64H1949.07V1513.39Z" fill="#F9D0AF"/>
<path d="M1967.9 1247.34C1989.62 1247.34 2007.23 1229.74 2007.23 1208.02H1928.57C1928.57 1229.74 1946.18 1247.34 1967.9 1247.34Z" fill="#466AA5"/>
<path d="M1973.41 1242.57C1971.22 1243 1968.95 1243.22 1966.63 1243.22C1947.25 1243.22 1931.53 1227.51 1931.53 1208.12H1945.08C1945.08 1225.19 1957.26 1239.41 1973.41 1242.57Z" fill="#B2CBFD"/>
<path d="M1445.9 1513.39C1494.21 1513.39 1533.37 1474.23 1533.37 1425.92H1358.43C1358.43 1474.23 1397.59 1513.39 1445.9 1513.39Z" fill="#466AA5"/>
<path d="M1460.06 1502.53C1455.18 1503.49 1450.14 1503.98 1444.99 1503.98C1401.87 1503.98 1366.92 1469.03 1366.92 1425.92H1397.05C1397.05 1463.88 1424.15 1495.51 1460.06 1502.53Z" fill="#B2CBFD"/>
<path d="M1527.54 1425.92H1364.23C1368.76 1421.93 1378.57 1415.64 1394.61 1416.67C1394.61 1416.67 1411.19 1414.94 1420.1 1408.26C1429 1401.58 1455.71 1398.86 1470.3 1410.23C1484.9 1421.62 1501.22 1418.65 1510.12 1420.13C1517.66 1421.38 1524.68 1422.46 1527.54 1425.92Z" fill="#EFE3A8"/>
<path d="M973.859 1315.63C972.961 1315.87 972.036 1315.34 971.798 1314.44L930.014 1156.21L930.979 1155.95L975.034 1313.56C975.284 1314.45 974.757 1315.38 973.859 1315.63Z" fill="#2E3552"/>
<path d="M984.244 1312.05C983.386 1312.41 982.398 1312 982.043 1311.14L919.649 1159.85L920.571 1159.46L985.134 1309.84C985.501 1310.69 985.102 1311.69 984.244 1312.05Z" fill="#2E3552"/>
<path d="M994.981 1278.46C991.909 1276.58 988.973 1275.28 987.001 1275.56C976.589 1276.98 952.325 1277.59 941.042 1251.1C941.042 1251.1 929.36 1222.93 935.95 1219.49C935.95 1219.49 937.724 1247.56 958.105 1252.89C977.996 1258.1 994.203 1277.53 994.981 1278.46Z" fill="#F2A672"/>
<path d="M941.331 1238.5C941.331 1238.5 961.504 1232.83 973.004 1245.17C984.504 1257.5 979.307 1263.76 979.307 1263.76C979.307 1263.76 969.015 1256.48 954.254 1252.75C944.709 1250.34 941.331 1238.5 941.331 1238.5Z" fill="#FFB27D"/>
<path d="M1803.96 1508.94C1839.03 1508.94 1867.46 1490.32 1867.46 1467.35C1867.46 1444.39 1839.03 1425.77 1803.96 1425.77C1768.89 1425.77 1740.46 1444.39 1740.46 1467.35C1740.46 1490.32 1768.89 1508.94 1803.96 1508.94Z" fill="#466AA5"/>
<path d="M1825.55 1430.74C1825.55 1436.29 1815.88 1440.79 1803.96 1440.79C1792.04 1440.79 1782.37 1436.29 1782.37 1430.74C1782.37 1425.19 1792.04 1420.69 1803.96 1420.69C1815.88 1420.69 1825.55 1425.19 1825.55 1430.74Z" fill="#466AA5"/>
<path d="M1810.05 1418.94C1810.05 1422.3 1807.32 1425.02 1803.96 1425.02C1800.6 1425.02 1797.88 1422.3 1797.88 1418.94C1797.88 1415.58 1800.6 1412.85 1803.96 1412.85C1807.32 1412.85 1810.05 1415.58 1810.05 1418.94Z" fill="#466AA5"/>
<path d="M1830.23 1513.39H1777.69C1774.66 1513.39 1772.2 1510.94 1772.2 1507.91C1772.2 1504.88 1774.66 1502.43 1777.69 1502.43H1830.23C1833.26 1502.43 1835.72 1504.88 1835.72 1507.91C1835.72 1510.94 1833.26 1513.39 1830.23 1513.39Z" fill="#466AA5"/>
<path d="M1750.96 1485.66C1750.96 1485.66 1730.53 1485.44 1724.5 1473.6C1718.15 1461.14 1721.75 1442.06 1709.68 1440.79V1436.77C1709.68 1436.77 1726.09 1433.6 1730.32 1454.13C1733.49 1469.52 1758.58 1463.44 1758.58 1463.44L1750.96 1485.66Z" fill="#466AA5"/>
<path d="M1841.43 1444.18H1835.08V1421.74C1835.08 1404 1820.65 1389.57 1802.91 1389.57C1785.18 1389.57 1770.75 1404 1770.75 1421.74V1436.56H1764.4V1421.74C1764.4 1400.5 1781.67 1383.22 1802.91 1383.22C1824.15 1383.22 1841.43 1400.5 1841.43 1421.74V1444.18Z" fill="#466AA5"/>
<path d="M1795.61 1496.34C1793.27 1496.81 1790.85 1497.05 1788.38 1497.05C1767.68 1497.05 1750.91 1480.27 1750.91 1459.57H1765.37C1765.37 1477.8 1778.38 1492.98 1795.61 1496.34Z" fill="#B2CBFD"/>
<path opacity="0.4" d="M2702.69 1642.83L2703.04 1639.46H2159.23V1677.46H2634C2648.49 1665.37 2668.3 1652.12 2702.69 1642.83Z" fill="#ED9F4A"/>
</svg>
