<svg width="800" height="800" viewBox="0 0 800 800" fill="none" xmlns="http://www.w3.org/2000/svg">
<path d="M406.163 669.226C570.203 669.226 703.184 536.245 703.184 372.204C703.184 208.164 570.203 75.1825 406.163 75.1825C242.122 75.1825 109.141 208.164 109.141 372.204C109.141 536.245 242.122 669.226 406.163 669.226Z" fill="#FFE2BB"/>
<path d="M376.359 56.9884C371.698 63.4025 382.382 108.884 357.23 124.257C357.23 124.257 357.361 83.2267 376.359 56.9884Z" fill="#2ECC71"/>
<path d="M480.491 139.513C471.241 142.727 458.732 204.748 419.221 198.936C419.221 198.936 448.296 150.704 480.491 139.513Z" fill="#2ECC71"/>
<path d="M502.32 193.316C493.352 193.812 472.242 245.309 438.649 237.993C438.649 237.993 469.601 195.121 502.32 193.316Z" fill="#2ECC71"/>
<path d="M511.278 244.796C503.48 244.692 488.397 293.1 458.586 283.842C458.586 283.842 482.827 244.413 511.278 244.796Z" fill="#2ECC71"/>
<path d="M530.574 296.833C522.542 296.848 506.249 345.876 475.68 337.011C475.68 337.011 501.266 296.889 530.574 296.833Z" fill="#2ECC71"/>
<path d="M548.94 344.811C540.628 344.97 522.889 394.74 491.413 386.338C491.413 386.338 518.611 345.391 548.94 344.811Z" fill="#2ECC71"/>
<path d="M563.526 394.454C554.811 395.115 532.836 440.448 500.449 434.947C500.449 434.947 531.726 396.862 563.526 394.454Z" fill="#2ECC71"/>
<path d="M433.077 91.5957C424.923 95.8788 422.049 157.891 384.858 157.95C384.858 157.95 398.483 109.771 433.077 91.5957Z" fill="#2ECC71"/>
<path d="M253.046 40C262.757 42.7915 287.754 96.7897 325.048 92.4456C325.048 92.4456 292.707 51.4076 253.046 40Z" fill="#2ECC71"/>
<path d="M296.659 64.5395C296.659 64.5395 478.194 219.276 509.957 508.665L525.846 505.186C525.846 505.186 490.307 278.768 405.083 172.521C323.927 71.3238 296.659 64.5395 296.659 64.5395Z" fill="#27AE60"/>
<path d="M311.268 208.168C322.556 203.255 384.695 235.843 417.033 201.567C417.033 201.567 350.56 191.073 311.268 208.168Z" fill="#2ECC71"/>
<path d="M283.155 162.759C294.199 158.071 356.339 190.095 387.953 157.876C387.953 157.876 330.006 142.874 283.155 162.759Z" fill="#2ECC71"/>
<path d="M269.264 117.219C278.925 114.283 329.196 146.11 358.182 122.258C358.182 122.258 308.759 105.302 269.264 117.219Z" fill="#2ECC71"/>
<path d="M355.762 254.292C363.64 248.035 420.475 268.353 443.012 238.531C443.012 238.531 384.503 231.464 355.762 254.292Z" fill="#2ECC71"/>
<path d="M373.492 304.16C381.37 297.903 438.205 318.221 460.742 288.399C460.742 288.399 402.234 281.332 373.492 304.16Z" fill="#2ECC71"/>
<path d="M389.007 354.028C396.885 347.771 453.72 368.089 476.257 338.267C476.257 338.267 417.749 331.2 389.007 354.028Z" fill="#2ECC71"/>
<path d="M406.738 399.463C414.615 393.206 471.451 413.525 493.988 383.703C493.988 383.703 435.48 376.636 406.738 399.463Z" fill="#2ECC71"/>
<path d="M433.867 447.56C440.563 441.944 487.957 459.025 507.286 432.462C507.286 432.462 458.301 427.065 433.867 447.56Z" fill="#2ECC71"/>
<path d="M569.429 593.034C568.993 591.394 568.631 589.734 568.266 588.075C567.503 584.621 567.139 582.829 566.637 580.398C564.786 571.438 563.011 562.461 561.244 553.487C555.853 526.096 488.636 196.969 482.196 161.225C481.057 154.911 475.231 156.66 476.377 163.02C483.78 204.098 546.679 536.412 551.419 560.374C553.825 572.532 555.842 584.905 559.032 596.868C560.699 603.12 571.083 599.233 569.429 593.034Z" fill="#7C471A"/>
<path d="M536.54 602.015C536.638 600.32 536.811 598.629 536.979 596.94C537.329 593.42 537.542 591.605 537.821 589.138C538.854 580.047 539.962 570.965 541.079 561.884C544.485 534.178 583.111 200.485 588.12 164.513C589.006 158.158 582.924 158.005 582.032 164.406C576.275 205.748 532.556 541.123 529.597 565.368C528.097 577.671 526.161 590.058 525.467 602.419C525.104 608.879 536.181 608.419 536.54 602.015Z" fill="#7C471A"/>
<path d="M522.596 608.476C522.675 606.603 522.833 604.731 522.987 602.862C523.306 598.967 523.501 596.956 523.757 594.229C524.705 584.172 525.726 574.122 526.759 564.074C529.907 533.417 565.42 164.196 570.095 124.392C570.92 117.363 564.836 117.2 564.005 124.282C558.633 170.024 518.041 541.114 515.31 567.943C513.924 581.555 512.104 595.257 511.525 608.937C511.222 616.081 522.297 615.562 522.596 608.476Z" fill="#895321"/>
<path d="M556.169 600.583C555.896 598.729 555.699 596.86 555.498 594.996C555.082 591.109 554.894 589.098 554.634 586.371C553.675 576.315 552.793 566.254 551.919 556.191C549.251 525.487 514.772 156.168 511.884 116.196C511.373 109.137 505.367 110.119 505.882 117.232C509.198 163.17 539.041 535.277 541.398 562.14C542.595 575.77 543.38 589.572 545.383 603.117C546.427 610.19 557.206 607.599 556.169 600.583Z" fill="#895321"/>
<path d="M542.859 588.016C542.744 586.145 542.709 584.266 542.668 582.391C542.584 578.485 542.569 576.464 542.544 573.725C542.447 563.624 542.429 553.523 542.417 543.422C542.383 512.603 539.595 141.689 540.136 101.616C540.232 94.5378 534.163 95.0033 534.066 102.134C533.443 148.188 531.375 521.485 531.427 548.451C531.454 562.134 531.058 575.952 531.894 589.618C532.331 596.755 543.292 595.095 542.859 588.016Z" fill="#7C471A"/>
<g opacity="0.9">
<path d="M469.476 334.214C471.67 330.923 484.3 324.074 487.591 322.153C488.962 320.782 490.061 306.796 486.768 303.779C484.025 301.31 480.735 298.568 484.849 295.825C489.786 292.534 530.65 291.437 536.134 291.437C545.733 291.162 589.602 292.526 588.232 297.464C587.682 299.932 586.86 301.303 585.763 302.949C584.393 304.868 584.404 318.04 585.776 321.88C592.084 325.993 599.215 328.187 603.603 335.044C607.442 340.803 606.895 618.019 602.506 620.487C592.871 625.908 566.305 634.748 536.135 634.475C499.362 634.14 468.943 619.665 468.943 615.003C468.941 595.735 467.008 338.053 469.476 334.214Z" fill="#F9F2EA"/>
</g>
<path d="M534.768 337.965C553.561 337.572 598.311 336.584 596.569 336.868L596.751 337.051C578.475 340.016 553.504 340.869 535.045 341.279C517.2 341.676 478.455 337.965 475.895 335.953C474.522 334.875 517.217 338.33 534.768 337.965Z" fill="#E8D7C5"/>
<g opacity="0.6">
<path d="M477.156 418.665C490.869 417.02 520.214 415.1 535.025 414.825C547.64 415.1 579.73 416.469 595.636 419.487C595.636 419.487 596.733 610.059 593.167 613.899C590.698 616.367 561.091 625.699 542.443 625.424C511.728 624.972 481.009 615.003 477.991 611.163C475.523 607.597 476.066 418.795 477.156 418.665Z" fill="#F4E051"/>
</g>
<path d="M586.795 429.694C545.921 438.668 517.33 437.588 483.895 429.694C482.386 429.337 482.249 427.889 483.758 428.246C516.749 436.035 553.437 435.059 586.513 428.429C588.026 428.125 588.315 429.39 586.795 429.694Z" fill="#F4E051"/>
<path d="M509.349 458.454C509.349 459.665 510.332 460.647 511.543 460.647C512.755 460.647 513.736 459.664 513.736 458.454C513.736 457.241 512.754 456.26 511.543 456.26C510.332 456.26 509.349 457.241 509.349 458.454Z" fill="white"/>
<path d="M492.757 468.875C492.757 470.617 494.169 472.029 495.911 472.029C497.653 472.029 499.066 470.618 499.066 468.875C499.066 467.133 497.654 465.721 495.911 465.721C494.169 465.722 492.757 467.133 492.757 468.875Z" fill="white"/>
<path d="M508.115 485.057C510.463 485.057 512.366 483.153 512.366 480.806C512.366 478.458 510.463 476.555 508.115 476.555C505.767 476.555 503.864 478.458 503.864 480.806C503.864 483.153 505.767 485.057 508.115 485.057Z" fill="white"/>
<path d="M734.663 527.893C722.499 495.901 692.126 471.752 658.087 469.148C641.491 468.204 630.27 470.341 610.993 479.457L602.537 481.751C565.46 489.631 545.451 540.883 557.036 575.285C571.294 613.391 616.301 633.932 660.671 628.575C704.976 622.439 753.293 571.133 734.663 527.893Z" fill="#EFE5DA"/>
<path d="M585.959 388.791C596.703 420.462 602.81 471.111 607.779 483.27C616.344 486.865 620.023 488.517 650.654 478.827C660.179 475.814 659.243 478.095 659.939 467.812C660.078 455.61 641.584 376.135 638.186 374.114C632.756 370.885 614.672 379.659 607.355 381.462C600.461 383.623 593.277 386.988 586.027 389.572" fill="#996733"/>
<path d="M605.413 487.798C605.413 487.798 591.352 502.76 589.38 525.734C587.407 548.709 598.175 564.307 598.175 564.307C598.175 564.307 587.885 526.648 605.413 487.798Z" fill="#E2D4C7"/>
<path d="M638.023 492.093C638.023 492.093 675.791 538.42 675.125 581.337C675.125 581.337 684.052 520.021 638.023 492.093Z" fill="#E2D4C7"/>
<path d="M666.179 481.043C666.179 481.043 707.415 503.479 710.774 524.426C710.774 524.426 706.373 486.659 666.179 481.043Z" fill="#E2D4C7"/>
<path d="M642.253 509.429C642.253 509.429 652.526 537.651 651.182 549.562C651.182 549.562 656.925 524.693 642.253 509.429Z" fill="#E2D4C7"/>
<path d="M587.837 394.42C587.837 394.42 622.745 406.056 639.368 378.905L587.837 394.42Z" fill="#8C5829"/>
<path d="M605.658 328.112C638.79 311.204 675.579 379.571 625.887 382.521C615.4 368.08 606.205 345.385 603.634 328.274" fill="#E2D4C7"/>
<path d="M635.014 383.034C621.361 388.917 589.367 401.083 575.096 390.503C560.824 379.923 560.703 350.836 571.549 339.688C576.681 335.318 587.927 328.854 594.172 328.321C606.532 325.694 602.56 325.246 610.586 336.358C619.46 348.185 631.407 368.399 635.014 383.034Z" fill="#EFE5DA"/>
<path d="M644.179 396.346C633.594 411.237 612.932 420.391 595.967 425.548C592.558 426.585 594.011 431.933 597.438 430.89C615.975 425.257 637.437 415.358 648.962 399.143C651.039 396.223 646.23 393.46 644.179 396.346Z" fill="#8C5829"/>
<path d="M656.544 440.963C645.92 442.368 635.097 440.927 624.656 438.862C615.971 437.145 606.513 435.058 598.655 430.813C595.511 429.114 592.714 433.898 595.859 435.596C603.757 439.864 612.969 442.004 621.67 443.89C632.967 446.34 645.012 448.027 656.545 446.502C660.034 446.043 660.079 440.495 656.544 440.963Z" fill="#8C5829"/>
<path d="M605.014 471.438C623.792 473.363 642.542 468.012 657.943 457.207C660.843 455.172 658.079 450.365 655.147 452.424C640.44 462.741 622.948 467.736 605.015 465.897C601.46 465.533 601.497 471.078 605.014 471.438Z" fill="#8C5829"/>
<path d="M579.526 340.673C579.526 340.673 575.093 352.309 579.526 350.646C583.959 348.984 603.352 335.686 603.352 335.686C603.352 335.686 584.513 359.512 576.755 357.296C568.998 355.079 579.526 340.673 579.526 340.673Z" fill="#E2D4C7"/>
<path d="M316.219 193.039C355.953 194.072 378.127 199.261 379.084 205.483C380.999 216.491 376.691 277.268 377.17 294.496C377.17 294.496 337.944 305.983 259.937 295.454C259.458 292.582 253.933 235.982 253.693 210.256C253.67 207.851 279.369 192.083 316.219 193.039Z" fill="#996733"/>
<g opacity="0.9">
<path d="M212.057 321.284C215.886 315.542 237.922 303.589 243.665 300.24C246.057 297.848 247.972 273.441 242.23 268.176C237.445 263.869 231.701 259.084 238.88 254.297C247.494 248.555 309.04 246.641 318.612 246.641C335.362 246.161 399.161 248.543 396.769 257.156C395.811 261.464 394.376 263.856 392.461 266.728C390.069 270.078 390.091 293.062 392.483 299.763C403.491 306.941 415.935 310.77 423.591 322.733C430.291 332.783 429.335 598.419 421.677 602.726C404.863 612.185 371.255 627.613 318.612 627.134C254.443 626.551 211.123 601.291 211.123 593.155C211.123 559.533 207.75 327.984 212.057 321.284Z" fill="#F9F2EA"/>
</g>
<path d="M316.229 327.828C349.02 327.146 414.358 325.42 411.318 325.914L411.636 326.233C379.745 331.407 348.919 332.896 316.712 333.612C285.573 334.305 227.723 327.827 223.256 324.319C220.862 322.439 285.6 328.467 316.229 327.828Z" fill="#E8D7C5"/>
<path d="M225.457 358.135C249.386 355.264 290.832 351.914 316.675 351.435C338.689 351.914 381.933 354.306 409.69 359.571C409.69 359.571 411.604 584.529 405.382 591.229C401.075 595.537 349.413 611.82 316.869 611.34C263.273 610.552 232.179 593.155 226.915 586.455C222.608 580.234 223.557 358.363 225.457 358.135Z" fill="#F7BD51"/>
<path d="M394.265 368.002C322.943 383.663 295.561 381.779 237.216 368.002C234.582 367.38 234.343 364.854 236.976 365.476C294.548 379.07 336.055 377.365 393.771 365.796C396.414 365.265 396.918 367.47 394.265 368.002Z" fill="#DD9A2F"/>
<path d="M367.098 394.985C367.098 397.098 368.813 398.813 370.927 398.813C373.041 398.813 374.756 397.098 374.756 394.985C374.756 392.871 373.041 391.156 370.927 391.156C368.811 391.156 367.098 392.87 367.098 394.985Z" fill="white"/>
<path d="M343.648 418.673C346.687 418.673 349.151 416.209 349.151 413.17C349.151 410.131 346.687 407.667 343.648 407.667C340.608 407.667 338.145 410.131 338.145 413.17C338.145 416.209 340.608 418.673 343.648 418.673Z" fill="white"/>
<path d="M357.526 433.989C357.526 438.083 360.848 441.406 364.944 441.406C369.04 441.406 372.362 438.083 372.362 433.989C372.362 429.892 369.041 426.57 364.944 426.57C360.848 426.57 357.526 429.892 357.526 433.989Z" fill="white"/>
<path d="M82.5289 399.967C81.116 394.787 84.4416 380.165 89.1214 376.421C91.4763 374.537 123.97 384.427 131.506 388.194C141.395 392.903 145.161 392.278 153.166 383.801C160.701 375.795 169.802 367.083 172.005 367.002C184.562 366.535 197.907 366.531 211.092 367.473C216.273 368.415 218.628 367.944 222.394 370.77C227.575 374.537 257.714 409.857 259.598 423.985C261.482 437.641 252.535 448.002 248.296 460.247C244.528 471.549 248.767 477.672 254.888 487.561C270.428 512.05 283.615 541.717 278.906 571.387C275.609 592.107 269.016 618.95 245.941 623.189C224.278 627.428 199.79 626.015 178.127 626.015C164.942 626.015 147.988 626.957 135.273 622.718C103.25 611.887 91.0053 563.851 103.25 535.596C109.371 521.468 118.32 509.223 125.854 496.038C128.68 490.858 138.354 478.444 140.295 473.593C140.922 472.023 131.818 459.779 127.738 448.473C125.236 441.54 120.675 428.694 117.378 422.101C111.727 409.857 85.8257 402.322 82.9999 400.438" fill="#F2E5DB"/>
<path d="M92.8883 380.192C91.195 377.693 89.0994 379.328 90.8094 381.848C93.0734 385.188 94.3012 396.359 87.3939 397.93C84.4473 398.599 84.5171 400.005 87.5513 399.813C92.9958 399.47 95.0858 394.79 95.8604 391.633C96.8323 387.669 94.8775 383.127 92.8883 380.192Z" fill="#DDC4B3"/>
<path d="M155.684 479.313C169.433 483.349 184.39 483.726 198.613 483.481C211.22 483.263 225.44 482.82 237.306 478.061C240.088 476.944 210.899 478.49 198.613 478.771C184.814 479.087 152.776 478.46 155.684 479.313Z" fill="#DDC4B3"/>
<path d="M203.92 354.196C203.92 347.542 192.745 345.239 190.806 354.658C180.74 355.582 175.938 361.122 175.938 369.988L176.77 371.096C190.991 381.255 205.028 378.022 218.326 372.481C221.928 354.75 203.92 354.473 203.92 354.196Z" fill="#CCA387"/>
<path d="M628.852 528.761C620.612 520.968 606.879 513.316 597.143 507.722C581.716 497.683 564.765 490.304 546.052 489.68C530.072 489.214 499.043 503.883 506.141 523.501C512.004 540.76 533.678 553.446 548.782 561.177C568.791 571.021 589.923 577.271 611.765 571.22C622.002 568.152 643.39 562.07 642.786 548.773C642.725 541.911 635.048 532.319 629.736 529.27" fill="#A3AAAD"/>
<path d="M669.095 584.066C655.95 563.749 625.902 553.776 599.614 548.974C564.872 543.063 513.229 535.306 484.592 556.731C459.241 575.939 481.307 604.383 511.82 609.554L514.169 609.924C554.544 617.681 577.546 616.573 613.697 611.77C629.659 609.554 681.77 604.383 669.095 584.066Z" fill="#BDC3C7"/>
<path d="M749.995 598.404C742.761 593.837 449.478 597.161 410.425 597.161C295.561 597.161 51.7527 596.053 51.7527 596.053C44.5728 601.517 61.5734 649.831 64.6375 654.568C76.1238 670.131 92.2855 673.013 111.95 675.842C165.876 683.599 656.367 692.719 721.442 666.976C738.289 660.311 750.284 624.866 749.995 598.404Z" fill="#E8C285"/>
<path d="M492.722 609.217C483.118 605.892 470.558 599.243 456.891 600.352C439.95 601.725 441.376 614.389 427.339 620.669C417.366 624.731 405.177 630.272 394.833 632.489C390.4 633.228 383.382 630.641 379.318 631.381L370.084 633.228C382.274 641.354 389.662 642.093 395.203 643.57C405.546 646.526 417.736 647.264 428.079 644.31C440.638 640.985 447.287 629.164 450.243 621.407C451.454 618.229 455.784 609.217 458 605.892C458.297 605.446 460.486 605.497 462.433 605.154C460.586 615.128 468.713 630.272 472.407 633.967C478.687 640.985 485.705 644.679 494.939 647.265C504.913 649.851 511.932 647.634 521.906 648.373C530.771 648.742 540.005 647.634 547.394 652.067C538.896 627.318 515.993 616.605 492.722 609.217Z" fill="#D3A96C"/>
<path d="M458.74 572.828C442.117 556.759 429.927 529.609 437.131 506.337C441.009 493.593 449.875 479.741 464.835 479.741C470.93 495.255 473.7 509.107 472.038 526.284C470.376 542.353 462.619 557.313 459.294 572.828" fill="#7DD181"/>
<path d="M464.364 580.406C459.083 565.339 457.368 548.839 456.645 532.982C455.951 517.792 460.336 479.673 458.564 482.775C450.455 496.969 450.539 515.672 451.046 531.504C451.582 548.249 453.451 565.982 459.021 581.88C460.195 585.228 465.55 583.789 464.364 580.406Z" fill="#64BC66"/>
<path d="M461.511 572.828C469.268 539.582 505.838 510.77 539.637 509.107C544.07 528.501 524.564 555.424 508.608 563.408C499.741 567.845 465.017 578.927 463.909 572.278" fill="#6FC671"/>
<path d="M463.47 574.971C492.354 546.79 537.788 512.066 535.572 513.174C506.749 527.586 481.624 550.492 459.476 573.016C456.971 575.565 460.961 577.521 463.47 574.971Z" fill="#64BC66"/>
<path d="M452.646 581.693C433.252 587.788 410.535 593.883 392.25 582.247C379.506 573.936 368.424 560.084 359.559 547.894C380.06 545.123 408.873 548.448 426.049 560.084C431.59 564.516 436.023 569.503 441.564 574.49C443.226 576.152 445.442 577.26 447.659 578.923C449.875 580.585 453.2 580.585 450.429 581.139" fill="#6FC671"/>
<path d="M368.605 553.808C378.777 560.636 386.434 564.11 397.968 567.991C406.913 571.003 415.705 574.477 424.713 577.284C433.659 580.072 442.78 582.37 452.007 584.001C459.66 585.356 467.844 585.162 475.726 584.554C476.838 584.469 475.361 578.928 474.255 579.211C466.704 581.139 458.184 579.549 450.699 578.155C442.063 576.546 433.542 574.234 425.16 571.622C417.079 569.103 409.213 565.921 401.185 563.234C389.501 559.324 360.854 548.135 363.804 550.115L368.605 553.808Z" fill="#64BC66"/>
<path d="M468.341 592.963C459.742 610.168 474.103 631.25 486.442 638.769C502.061 648.288 533.41 642.62 550.544 647.186C549.079 637.62 547.1 623.407 541.851 615.127C536.211 606.168 525.021 600.237 515.528 597.133C500.143 592.459 483.227 591.391 468.698 592.107" fill="#7DD181"/>
<path d="M466.679 584.468C467.695 600.131 475.09 611.89 488.397 620.06C504.5 629.949 546.873 638.952 543.619 637.484C528.251 630.558 511.94 625.781 496.811 618.344C482.571 611.344 473.276 600.744 472.221 584.469C471.991 580.922 466.448 580.899 466.679 584.468Z" fill="#64BC66"/>
<path d="M456.337 597.212C448.58 610.51 440.086 637.102 424.017 640.427C405.732 644.305 384.677 636.548 367.5 629.899C389.109 621.033 390.534 604.494 414.041 596.658C426.231 592.594 446.364 585.022 455.783 595.55" fill="#7DD181"/>
<path d="M392.248 629.533C428.817 619.559 435.844 595.705 469.822 597.947C473.392 598.183 473.375 592.35 469.822 592.406C433.988 592.963 409.239 624.362 377.102 630.272L392.248 629.533Z" fill="#64BC66"/>
<path d="M177.283 721.398C168.881 729.484 144.934 736.537 135.928 735.73C124.951 734.686 113.676 736.856 102.815 735.591C117.016 727.379 133.167 721.327 149.852 720.622C156.748 720.345 170.48 717.789 177.063 721.283C176.831 721.718 176.61 721.605 176.377 722.045" fill="#6FC576"/>
<path d="M111.843 663.998C128.467 663.3 160.73 678.401 169.594 687.781C180.339 699.274 194.443 707.614 204.856 719.235C181.913 714.586 158.928 705.785 140.426 690.765C132.793 684.541 115.7 674.29 111.968 664.329C112.632 664.082 112.756 664.412 113.421 664.167" fill="#66A86B"/>
<path d="M198.104 707.052C180.84 717.504 137.723 720.289 122.826 715.493C104.689 709.551 84.8253 708.918 66.9714 702.646C94.0764 694.193 123.65 690.125 152.09 695.29C163.841 697.449 187.997 698.365 197.78 706.771C197.22 707.424 196.892 707.142 196.331 707.795" fill="#6FC576"/>
<path d="M310.502 705.955C294.167 717.81 251.432 724.175 236.188 720.64C217.619 716.227 197.771 717.252 179.457 712.491C205.764 701.808 234.895 695.29 263.667 698.067C275.556 699.241 299.703 698.14 310.154 705.704C309.649 706.397 309.301 706.148 308.796 706.844" fill="#66A86B"/>
<path d="M204.821 709.248C210.715 696.755 234.252 678.854 244.563 675.952C257.156 672.479 268.724 665.322 281.28 662.145C269.019 677.224 253.691 690.731 235.517 698.547C227.998 701.762 213.876 710.379 205.114 709.286C205.188 708.702 205.479 708.738 205.552 708.154" fill="#6FC576"/>
<path d="M191.903 699.148C179.943 697.398 174.828 685.466 175.335 674.6C175.608 658.886 191.617 649.642 205.06 647.472C208.964 659.455 223.726 666.877 220.112 680.922C217.172 691.009 203.286 701.759 192.217 699.099" fill="#FFF9DE"/>
<path d="M193.181 694.936C193.181 694.936 190.069 667.701 202.153 652.351C202.153 652.351 193.637 671.679 193.181 694.936Z" fill="#E5DEC1"/>
<path d="M192.123 694.746C192.123 694.746 187.052 683.726 190.89 671.767C193.63 663.236 194.559 659.752 202.153 652.353C202.153 652.353 194.054 654.821 189.478 670.941C184.9 687.061 192.123 694.746 192.123 694.746Z" fill="#E5DEC1"/>
<path d="M194.772 694.849C194.772 694.849 199.278 680.347 200.23 673.199C201.183 666.051 202.354 652.416 202.354 652.416C202.354 652.416 203.594 662.897 201.762 673.766C199.867 685.006 194.772 694.849 194.772 694.849Z" fill="#E5DEC1"/>
<path d="M190.545 694.09C190.545 694.09 182.075 684.366 185.193 674.186C188.312 664.005 193.766 657.114 202.152 652.352C202.152 652.352 188.24 655.211 183.908 673.662C180.461 688.356 190.545 694.09 190.545 694.09Z" fill="#E5DEC1"/>
<path d="M195.852 694.975C195.852 694.975 203.051 688.564 204.051 677.556C205.048 666.548 204.638 659.933 202.443 652.369C202.443 652.369 207.291 662.35 206.22 674.972C205.365 685.066 202.282 692.119 195.852 694.975Z" fill="#E5DEC1"/>
<path d="M202.739 652.612C202.739 652.612 210.64 662.827 212.66 672.792C214.679 682.754 207.103 693.59 196.818 694.984C196.818 694.984 212.404 687.988 211.276 675.478C210.148 662.967 203.378 655.726 202.739 652.612Z" fill="#E5DEC1"/>
<path d="M191.762 698.655C194.086 689.562 202.67 678.603 213.875 677.129C219.974 676.702 227.707 677.694 232.147 681.503C234.589 683.185 244.55 692.956 244.561 693.685C244.564 693.911 235.913 705.071 233.435 708.152C229.72 713.222 224.634 716.061 218.082 716.043C207.397 715.896 197.075 708.111 192.574 698.914" fill="#F2EACC"/>
<path d="M198.279 696.256C198.279 696.256 221.977 687.043 238.596 694.265C238.596 694.265 219.25 691.183 198.279 696.256Z" fill="#E5DEC1"/>
<path d="M198.202 695.264C198.202 695.264 207.362 687.908 218.997 688.533C227.294 688.979 230.168 689.196 238.597 694.265C238.597 694.265 234.474 687.583 218.933 687.277C203.392 686.972 198.202 695.264 198.202 695.264Z" fill="#E5DEC1"/>
<path d="M198.733 697.665C198.733 697.665 212.805 698.287 219.443 697.455C226.078 696.626 238.587 694.46 238.587 694.46C238.587 694.46 229.474 698.044 219.295 698.965C208.764 699.917 198.733 697.665 198.733 697.665Z" fill="#E5DEC1"/>
<path d="M198.418 693.693C198.418 693.693 205.11 684.428 214.976 684.823C224.842 685.22 232.347 687.864 238.596 694.265C238.596 694.265 232.614 683.176 215.04 683.641C201.045 684.01 198.418 693.693 198.418 693.693Z" fill="#E5DEC1"/>
<path d="M198.875 698.661C198.875 698.661 206.324 703.607 216.433 701.908C226.543 700.211 232.382 698.279 238.647 694.532C238.647 694.532 230.839 701.232 219.263 703.246C210.005 704.86 202.952 703.758 198.875 698.661Z" fill="#E5DEC1"/>
<path d="M238.499 694.85C238.499 694.85 231.202 704.346 222.739 708.509C214.276 712.668 202.77 708.429 199.094 699.528C199.094 699.528 209.046 711.862 220.003 707.9C230.958 703.94 235.858 696.161 238.499 694.85Z" fill="#E5DEC1"/>
<path d="M196.285 701.643C206.725 696.049 222.277 701.938 227.795 713.543C233.493 725.511 222.364 735.802 222.582 747.2C212.678 744.619 194.023 742.133 187.997 733.043C181.515 723.511 188.213 708.218 196.221 701.845" fill="#FFF9DE"/>
<path d="M196.866 704.467C196.866 704.467 217.033 721.358 218.775 740.026C218.775 740.026 211.922 720.948 196.866 704.467Z" fill="#E5DEC1"/>
<path d="M197.728 703.899C197.728 703.899 208.961 708.539 214.196 719.399C217.932 727.143 219.165 729.858 218.775 740.025C218.775 740.025 222.776 732.954 215.304 718.714C207.831 704.473 197.728 703.899 197.728 703.899Z" fill="#E5DEC1"/>
<path d="M195.813 705.58C195.813 705.58 202.266 718.648 206.328 724.254C210.39 729.855 218.592 740.115 218.592 740.115C218.592 740.115 210.799 733.643 204.889 724.871C198.773 715.796 195.813 705.58 195.813 705.58Z" fill="#E5DEC1"/>
<path d="M199.259 703.315C199.259 703.315 210.997 704.761 215.556 713.904C220.115 723.048 221.46 731.169 218.775 740.026C218.775 740.026 226.584 729.117 217.4 713.415C210.085 700.911 199.259 703.315 199.259 703.315Z" fill="#E5DEC1"/>
<path d="M194.984 706.207C194.984 706.207 194.211 715.426 200.794 723.745C207.374 732.065 212.034 736.397 218.56 740.206C218.56 740.206 208.591 736.469 200.99 726.979C194.91 719.389 192.395 712.444 194.984 706.207Z" fill="#E5DEC1"/>
<path d="M218.194 740.231C218.194 740.231 205.944 738.351 197.952 732.751C189.96 727.154 188.069 714.607 194.303 706.836C194.303 706.836 188.085 722.009 197.14 729.969C206.196 737.926 215.692 738.488 218.194 740.231Z" fill="#E5DEC1"/>
<path d="M191.299 699.4C196.458 709.106 198.454 727.036 186.509 734.531C177.863 740.106 165.482 734.789 156.209 740.461C152.052 735.996 151.236 725.298 151.004 720.454C150.556 712.558 156.393 706.682 163.089 703.464C170.945 699.427 182.599 696.087 191.161 699.134" fill="#F9F3D4"/>
<path d="M188.616 704.985C188.616 704.985 177.158 726.945 160.339 732.322C160.339 732.322 176.499 722.161 188.616 704.985Z" fill="#E5DEC1"/>
<path d="M189.312 705.661C189.312 705.661 187.316 716.931 178.387 723.943C172.017 728.943 169.772 730.622 160.339 732.322C160.339 732.322 167.651 734.573 179.239 724.822C190.828 715.073 189.312 705.661 189.312 705.661Z" fill="#E5DEC1"/>
<path d="M187.381 704.243C187.381 704.243 176.666 712.816 172.334 717.689C168.001 722.555 160.222 732.173 160.222 732.173C160.222 732.173 164.6 723.696 171.473 716.49C178.584 709.031 187.381 704.243 187.381 704.243Z" fill="#E5DEC1"/>
<path d="M190.161 706.952C190.161 706.952 191.202 718.041 183.714 724.082C176.226 730.12 169.029 733.004 160.34 732.322C160.34 732.322 171.843 736.61 184.427 724.99C194.446 715.736 190.161 706.952 190.161 706.952Z" fill="#E5DEC1"/>
<path d="M186.635 703.605C186.635 703.605 177.868 705.376 171.68 712.494C165.128 720.03 162.317 725.387 160.131 732.159C160.131 732.159 161.554 722.236 168.747 713.329C174.499 706.205 179.564 703.57 186.635 703.605Z" fill="#E5DEC1"/>
<path d="M159.14 731.674C159.14 731.674 156.821 726.011 159.688 717.43C161.609 711.673 166.121 702.612 185.035 702.198C185.035 702.198 166.444 704.71 162.29 715.244C158.688 724.374 159.14 731.674 159.14 731.674Z" fill="#E5DEC1"/>
<path d="M190.79 700.056C183.136 703.936 179.482 708.35 173.229 711.115C168.047 713.328 160.596 713.321 155.45 710.774C142.263 703.564 145.896 689.226 138.411 678.18C148.234 673.579 165.965 671.519 175.281 677.789C181.431 681.847 190.059 690.732 191.033 699.54" fill="#F2EACC"/>
<path d="M183.766 698.508C183.766 698.508 165.051 681.772 147.179 682.684C147.179 682.684 166.136 686.544 183.766 698.508Z" fill="#E5DEC1"/>
<path d="M184.183 697.616C184.183 697.616 178.265 687.639 167.291 684.183C159.463 681.714 156.733 680.921 147.18 682.682C147.18 682.682 153.311 677.936 167.787 683.041C182.26 688.15 184.183 697.616 184.183 697.616Z" fill="#E5DEC1"/>
<path d="M182.859 699.652C182.859 699.652 169.633 695.347 163.784 692.278C157.936 689.208 147.121 682.867 147.121 682.867C147.121 682.867 154.302 689.343 163.396 693.724C172.803 698.254 182.859 699.652 182.859 699.652Z" fill="#E5DEC1"/>
<path d="M184.502 696.547C184.502 696.547 180.674 685.34 171.415 682.284C162.155 679.232 155.178 678.934 147.179 682.684C147.179 682.684 155.68 674.645 171.766 681.17C184.577 686.366 184.502 696.547 184.502 696.547Z" fill="#E5DEC1"/>
<path d="M182.381 700.523C182.381 700.523 173.778 702.517 165.02 697.439C156.261 692.361 151.534 688.551 147.04 682.912C147.04 682.912 151.935 691.816 161.941 697.696C169.942 702.398 176.843 703.823 182.381 700.523Z" fill="#E5DEC1"/>
<path d="M147.066 683.259C147.066 683.259 150.52 694.571 156.902 701.352C163.284 708.134 175.095 707.391 181.878 701.251C181.878 701.251 168.398 709.202 159.644 701.74C150.887 694.277 149.055 685.384 147.066 683.259Z" fill="#E5DEC1"/>
<path d="M183.856 697.313C183.407 698.709 181.909 699.481 180.508 699.031C179.109 698.584 178.338 697.083 178.788 695.685C179.237 694.285 180.735 693.514 182.136 693.965C183.534 694.415 184.304 695.912 183.856 697.313Z" fill="#F7BD51"/>
<path d="M194.984 706.732C194.247 709.026 191.79 710.29 189.495 709.553C187.198 708.819 185.937 706.359 186.673 704.064C187.411 701.768 189.868 700.505 192.163 701.241C194.458 701.977 195.721 704.437 194.984 706.732Z" fill="#F7BD51"/>
<path d="M201.75 688.781C201.193 690.514 199.337 691.47 197.6 690.913C195.865 690.357 194.91 688.497 195.468 686.763C196.024 685.027 197.882 684.073 199.618 684.63C201.353 685.186 202.309 687.044 201.75 688.781Z" fill="#F7BD51"/>
<path d="M203.96 699.663C203.351 701.566 201.312 702.613 199.409 702.003C197.505 701.392 196.458 699.351 197.069 697.45C197.679 695.548 199.718 694.499 201.621 695.111C203.525 695.72 204.572 697.758 203.96 699.663Z" fill="#FFE888"/>
<path d="M193.327 694.124C192.771 695.862 190.912 696.817 189.177 696.26C187.442 695.7 186.486 693.844 187.044 692.109C187.602 690.372 189.46 689.417 191.193 689.977C192.929 690.533 193.885 692.391 193.327 694.124Z" fill="#FFE888"/>
<path d="M121.361 596.24L111.387 596.979C111.387 596.979 136.136 610.647 150.912 611.017L95.1337 637.982L92.1782 645C92.1782 645 119.514 653.496 179.355 632.81L182.68 643.892C182.68 643.892 191.096 640.003 198.933 641.307C207.019 642.651 211.719 647.282 221.097 643.154C221.097 643.154 239.936 659.775 259.144 661.623C259.144 661.623 262.469 650.172 273.181 633.918C273.181 633.918 291.919 639.937 314.184 642.415C323.21 643.42 330.585 644.539 342.628 643.154L280.57 614.341L121.361 596.24Z" fill="#D3A96C"/>
<path d="M190.415 619.102C185.664 596.19 153.998 557.374 138.167 548.507C118.808 537.797 102.593 521.424 83.1741 511.213C97.3887 540.903 117.274 569.229 144.107 589.306C155.215 597.581 175.058 617.373 189.918 619.048C190.03 618.057 189.535 618 189.647 617.01" fill="#6FC576"/>
<path d="M187.115 551.264C173.011 550.112 166.142 536.557 165.923 523.821C165.067 505.443 183.081 493.444 198.623 489.904C204.081 503.614 221.88 511.181 218.71 527.86C216.029 539.864 200.611 553.461 187.477 551.182" fill="#FFF9DE"/>
<path d="M188.291 546.248C188.291 546.248 182.62 514.663 195.589 495.825C195.589 495.825 187.087 519.042 188.291 546.248Z" fill="#E5DEC1"/>
<path d="M187.043 546.104C187.043 546.104 180.293 533.61 183.883 519.349C186.446 509.176 187.272 505.038 195.59 495.824C195.59 495.824 186.315 499.312 182.172 518.488C178.029 537.666 187.043 546.104 187.043 546.104Z" fill="#E5DEC1"/>
<path d="M190.145 546.028C190.145 546.028 194.326 528.748 194.904 520.326C195.483 511.903 195.831 495.886 195.831 495.886C195.831 495.886 198.064 508.039 196.736 520.873C195.363 534.148 190.145 546.028 190.145 546.028Z" fill="#E5DEC1"/>
<path d="M185.148 545.456C185.148 545.456 174.527 534.726 177.41 522.603C180.291 510.476 186.149 502.015 195.59 495.825C195.59 495.825 179.549 500.205 175.868 522.085C172.937 539.511 185.148 545.456 185.148 545.456Z" fill="#E5DEC1"/>
<path d="M191.415 546.093C191.415 546.093 199.347 538.064 199.692 525.128C200.036 512.194 199.063 504.494 195.932 495.825C195.932 495.825 202.341 507.119 202.034 521.949C201.79 533.808 198.715 542.276 191.415 546.093Z" fill="#E5DEC1"/>
<path d="M196.295 496.086C196.295 496.086 206.29 507.427 209.394 518.919C212.498 530.41 204.455 543.635 192.543 546.033C192.543 546.033 210.23 536.692 207.978 522.162C205.725 507.629 197.275 499.674 196.295 496.086Z" fill="#E5DEC1"/>
<path d="M186.912 550.697C188.947 539.9 198.158 526.455 211.138 523.897C218.231 522.943 227.34 523.522 232.813 527.643C235.793 529.422 248.161 540.095 248.227 540.947C248.246 541.208 238.973 554.895 236.307 558.68C232.346 564.88 226.618 568.578 218.961 569.048C206.466 569.672 193.826 561.349 187.88 550.942" fill="#F2EACC"/>
<path d="M194.348 547.407C194.348 547.407 221.344 534.875 241.301 542.068C241.301 542.068 218.47 539.914 194.348 547.407Z" fill="#E5DEC1"/>
<path d="M194.182 546.255C194.182 546.255 204.335 536.978 217.975 536.839C227.702 536.739 231.074 536.778 241.302 542.068C241.302 542.068 235.985 534.57 217.806 535.376C199.627 536.18 194.182 546.255 194.182 546.255Z" fill="#E5DEC1"/>
<path d="M194.982 549.02C194.982 549.02 211.469 548.697 219.162 547.228C226.853 545.763 241.305 542.3 241.305 542.3C241.305 542.3 230.928 547.166 219.102 549.003C206.87 550.9 194.982 549.02 194.982 549.02Z" fill="#E5DEC1"/>
<path d="M194.318 544.403C194.318 544.403 201.443 533.078 213.001 532.802C224.558 532.531 233.522 535.058 241.301 542.067C241.301 542.067 233.483 529.559 212.986 531.417C196.664 532.894 194.318 544.403 194.318 544.403Z" fill="#E5DEC1"/>
<path d="M195.224 550.174C195.224 550.174 204.295 555.396 215.98 552.655C227.664 549.915 234.341 547.225 241.38 542.375C241.38 542.375 232.76 550.788 219.385 554.006C208.689 556.584 200.369 555.823 195.224 550.174Z" fill="#E5DEC1"/>
<path d="M241.232 542.76C241.232 542.76 233.416 554.4 223.84 559.896C214.263 565.387 200.503 561.294 195.544 551.173C195.544 551.173 208.093 564.836 220.598 559.389C233.101 553.941 238.244 544.488 241.232 542.76Z" fill="#E5DEC1"/>
<path d="M185.885 551.38C197.664 544.065 216.274 549.78 223.587 562.927C231.14 576.485 218.907 589.338 220.013 602.64C208.25 600.363 186.269 598.854 178.548 588.685C170.263 578.033 176.945 559.666 185.823 551.622" fill="#FFF9DE"/>
<path d="M186.775 554.636C186.775 554.636 211.598 572.862 215.03 594.542C215.03 594.542 205.597 572.767 186.775 554.636Z" fill="#E5DEC1"/>
<path d="M187.738 553.909C187.738 553.909 201.209 558.489 208.139 570.785C213.081 579.553 214.725 582.632 215.031 594.542C215.031 594.542 219.176 585.983 209.381 569.903C199.587 553.821 187.738 553.909 187.738 553.909Z" fill="#E5DEC1"/>
<path d="M185.63 556.014C185.63 556.014 194.146 570.8 199.31 577.044C204.476 583.287 214.823 594.658 214.823 594.658C214.823 594.658 205.236 587.679 197.674 577.873C189.853 567.729 185.63 556.014 185.63 556.014Z" fill="#E5DEC1"/>
<path d="M189.485 553.11C189.485 553.11 203.307 553.922 209.316 564.264C215.328 574.604 217.506 583.994 215.031 594.541C215.031 594.541 223.339 581.213 211.435 563.554C201.955 549.495 189.485 553.11 189.485 553.11Z" fill="#E5DEC1"/>
<path d="M184.705 556.809C184.705 556.809 184.492 567.638 192.805 576.865C201.117 586.091 206.884 590.806 214.792 594.767C214.792 594.767 202.866 591.146 193.277 580.626C185.607 572.213 182.149 564.289 184.705 556.809Z" fill="#E5DEC1"/>
<path d="M214.366 594.825C214.366 594.825 199.915 593.544 190.158 587.6C180.402 581.658 177.255 567.139 183.958 557.596C183.958 557.596 177.826 575.786 188.999 584.408C200.175 593.03 211.312 592.978 214.366 594.825Z" fill="#E5DEC1"/>
<path d="M186.428 551.603C193.18 562.557 196.853 583.356 183.457 593.006C173.773 600.164 158.911 594.879 148.501 602.197C143.31 597.292 141.558 584.856 140.923 579.213C139.81 570.022 146.19 562.72 153.773 558.459C162.65 553.155 176.017 548.382 186.249 551.3" fill="#F9F3D4"/>
<path d="M183.711 558.328C183.711 558.328 171.965 584.843 152.718 592.381C152.718 592.381 170.837 579.304 183.711 558.328Z" fill="#E5DEC1"/>
<path d="M184.573 559.066C184.573 559.066 183.083 572.384 173.176 581.243C166.108 587.561 163.611 589.693 152.718 592.382C152.718 592.382 161.429 594.464 174.239 582.206C187.049 569.949 184.573 559.066 184.573 559.066Z" fill="#E5DEC1"/>
<path d="M182.212 557.554C182.212 557.554 170.334 568.374 165.637 574.388C160.939 580.397 152.568 592.214 152.568 592.214C152.568 592.214 157.05 581.984 164.541 573.05C172.29 563.804 182.212 557.554 182.212 557.554Z" fill="#E5DEC1"/>
<path d="M185.661 560.513C185.661 560.513 187.707 573.388 179.409 581.007C171.112 588.624 162.919 592.528 152.717 592.382C152.717 592.382 166.478 596.532 180.31 582.015C191.326 570.453 185.661 560.513 185.661 560.513Z" fill="#E5DEC1"/>
<path d="M181.293 556.863C181.293 556.863 171.182 559.587 164.486 568.367C157.393 577.665 154.51 584.134 152.463 592.207C152.463 592.207 153.384 580.507 161.121 569.562C167.308 560.807 173.028 557.352 181.293 556.863Z" fill="#E5DEC1"/>
<path d="M151.269 591.713C151.269 591.713 148.136 585.269 150.844 575.027C152.659 568.159 157.251 557.236 179.318 555.338C179.318 555.338 157.785 559.662 153.719 572.28C150.195 583.219 151.269 591.713 151.269 591.713Z" fill="#E5DEC1"/>
<path d="M185.883 552.407C177.23 557.513 173.292 562.944 166.192 566.642C160.304 569.614 151.597 570.164 145.396 567.573C129.448 560.131 132.622 543.111 123.05 530.762C134.183 524.655 154.743 520.921 166.096 527.551C173.584 531.834 184.328 541.566 186.124 551.784" fill="#F2EACC"/>
<path d="M177.561 551.123C177.561 551.123 154.444 532.97 133.633 535.37C133.633 535.37 156.068 538.464 177.561 551.123Z" fill="#E5DEC1"/>
<path d="M177.981 550.05C177.981 550.05 170.32 538.839 157.242 535.618C147.913 533.32 144.662 532.596 133.634 535.369C133.634 535.369 140.441 529.365 157.736 534.247C175.025 539.135 177.981 550.05 177.981 550.05Z" fill="#E5DEC1"/>
<path d="M176.587 552.53C176.587 552.53 160.812 548.488 153.749 545.34C146.687 542.191 133.578 535.592 133.578 535.592C133.578 535.592 142.452 542.618 153.405 547.058C164.733 551.648 176.587 552.53 176.587 552.53Z" fill="#E5DEC1"/>
<path d="M178.272 548.778C178.272 548.778 172.964 535.97 161.917 533.094C150.871 530.217 142.697 530.392 133.633 535.371C133.633 535.371 142.963 525.343 162.244 531.766C177.6 536.88 178.272 548.778 178.272 548.778Z" fill="#E5DEC1"/>
<path d="M176.093 553.582C176.093 553.582 166.191 556.554 155.58 551.276C144.968 545.997 139.158 541.902 133.487 535.646C133.487 535.646 139.872 545.684 152.001 551.804C161.699 556.7 169.869 557.851 176.093 553.582Z" fill="#E5DEC1"/>
<path d="M133.543 536.052C133.543 536.052 138.424 549.009 146.388 556.456C154.35 563.903 168.094 562.15 175.56 554.471C175.56 554.471 160.406 564.767 149.618 556.705C138.83 548.64 136.025 538.388 133.543 536.052Z" fill="#E5DEC1"/>
<path d="M177.575 549.72C177.155 551.386 175.462 552.4 173.792 551.979C172.123 551.559 171.111 549.866 171.531 548.197C171.951 546.529 173.645 545.516 175.314 545.939C176.982 546.356 177.994 548.051 177.575 549.72Z" fill="#F7BD51"/>
<path d="M191.281 559.892C190.592 562.63 187.816 564.289 185.079 563.601C182.341 562.913 180.683 560.135 181.372 557.397C182.061 554.661 184.838 553.001 187.574 553.689C190.31 554.379 191.97 557.157 191.281 559.892Z" fill="#F7BD51"/>
<path d="M197.846 538.413C197.325 540.482 195.225 541.738 193.156 541.216C191.087 540.696 189.832 538.595 190.354 536.526C190.874 534.458 192.973 533.203 195.042 533.723C197.11 534.246 198.366 536.346 197.846 538.413Z" fill="#F7BD51"/>
<path d="M201.239 550.963C200.668 553.232 198.366 554.61 196.096 554.037C193.827 553.467 192.45 551.162 193.022 548.894C193.594 546.625 195.897 545.247 198.166 545.82C200.435 546.391 201.811 548.695 201.239 550.963Z" fill="#FFE888"/>
<path d="M188.403 545.288C187.882 547.358 185.783 548.613 183.714 548.092C181.645 547.569 180.39 545.471 180.911 543.402C181.433 541.332 183.533 540.076 185.599 540.599C187.67 541.12 188.925 543.22 188.403 545.288Z" fill="#FFE888"/>
<path d="M244.867 609.301C255.933 621.977 289.476 635.111 302.522 635.076C318.434 634.948 334.371 639.479 350.141 639.02C330.752 625.439 308.294 614.717 284.395 611.616C274.515 610.353 255.097 604.964 245.196 609.163C245.477 609.821 245.807 609.682 246.086 610.342" fill="#6FC576"/>
<path d="M226.419 609.381C246.16 596.823 271.239 553.458 273.924 535.513C277.078 513.612 286.645 492.649 289.316 470.873C266.586 494.684 247.143 523.315 237.874 555.522C234.072 568.842 222.596 594.409 226.295 608.899C227.26 608.652 227.138 608.17 228.104 607.924" fill="#6FC576"/>
<path d="M324.204 508.611C301.647 514.828 264.95 548.925 257.118 565.293C247.679 585.306 232.384 602.538 223.442 622.575C252.158 606.481 279.143 584.81 297.453 556.74C304.995 545.124 323.467 524.047 324.181 509.109C323.186 509.063 323.162 509.56 322.166 509.513" fill="#66A86B"/>
<path d="M227.319 607.56C250.084 612.974 298.664 600.755 313.408 590.178C331.317 577.184 353.021 569.442 370.504 556.187C337.585 556.469 303.501 562.47 273.939 578.256C261.735 584.808 235.397 594.387 227.58 607.135C228.43 607.655 228.69 607.23 229.54 607.752" fill="#6FC576"/>
<path d="M87.7761 638.801C110.01 646.093 159.44 637.962 175.013 628.652C193.943 617.194 216.215 611.289 234.743 599.537C201.915 597.075 167.449 600.214 136.674 613.483C123.968 618.997 96.9241 626.345 88.0709 638.4C88.8743 638.988 89.1702 638.589 89.9736 639.178" fill="#66A86B"/>
<path d="M223.211 609.902C207.233 592.809 159.996 576.134 141.864 576.799C119.757 577.726 97.3908 572.178 75.4954 573.559C103.081 591.521 134.801 605.364 168.163 608.551C181.954 609.836 209.197 616.417 222.759 610.113C222.339 609.21 221.887 609.42 221.466 608.514" fill="#6FC576"/>
<path d="M237.085 597.638C223.805 592.749 220.82 577.85 224.02 565.521C228.121 547.584 248.691 540.852 264.613 541.606C266.198 556.276 281.32 568.335 273.794 583.555C267.996 594.403 249.5 603.37 237.456 597.656" fill="#FFF9DE"/>
<path d="M239.562 593.122C239.562 593.122 242.562 561.171 260.104 546.497C260.104 546.497 245.691 566.588 239.562 593.122Z" fill="#E5DEC1"/>
<path d="M238.397 592.649C238.397 592.649 235.242 578.802 242.522 566.026C247.716 556.911 249.621 553.147 260.105 546.497C260.105 546.497 250.234 547.373 241.105 564.74C231.974 582.104 238.397 592.649 238.397 592.649Z" fill="#E5DEC1"/>
<path d="M241.407 593.406C241.407 593.406 250.064 577.878 252.878 569.919C255.693 561.957 260.32 546.619 260.32 546.619C260.32 546.619 259.213 558.925 254.497 570.936C249.618 583.36 241.407 593.406 241.407 593.406Z" fill="#E5DEC1"/>
<path d="M236.747 591.515C236.747 591.515 229.388 578.334 235.415 567.423C241.44 556.514 249.35 549.931 260.105 546.496C260.105 546.496 243.478 546.419 234.068 566.514C226.576 582.517 236.747 591.515 236.747 591.515Z" fill="#E5DEC1"/>
<path d="M242.613 593.808C242.613 593.808 252.407 588.2 256.204 575.829C260.002 563.458 261.127 555.779 260.434 546.588C260.434 546.588 263.583 559.187 259.314 573.393C255.899 584.754 250.669 592.087 242.613 593.808Z" fill="#E5DEC1"/>
<path d="M260.713 546.94C260.713 546.94 267.305 560.542 267.216 572.447C267.128 584.349 255.836 594.936 243.716 594.053C243.716 594.053 263.26 589.795 264.983 575.19C266.706 560.586 260.696 550.66 260.713 546.94Z" fill="#E5DEC1"/>
<path d="M237.042 597.039C241.894 587.181 254.372 576.696 267.562 577.71C274.653 578.692 283.272 581.69 287.441 587.125C289.835 589.638 298.892 603.235 298.726 604.074C298.674 604.331 286.074 615.034 282.491 617.964C277.016 622.876 270.506 624.903 263 623.304C250.796 620.557 240.849 609.152 237.907 597.532" fill="#F2EACC"/>
<path d="M245.086 595.862C245.086 595.862 274.453 591.02 291.754 603.296C291.754 603.296 270.334 595.107 245.086 595.862Z" fill="#E5DEC1"/>
<path d="M245.236 594.705C245.236 594.705 257.504 588.488 270.682 592.008C280.082 594.518 283.32 595.459 291.755 603.295C291.755 603.295 288.641 594.648 270.912 590.552C253.182 586.458 245.236 594.705 245.236 594.705Z" fill="#E5DEC1"/>
<path d="M245.266 597.586C245.266 597.586 261.237 601.69 269.042 602.336C276.846 602.986 291.695 603.521 291.695 603.521C291.695 603.521 280.394 605.428 268.51 604.03C256.215 602.581 245.266 597.586 245.266 597.586Z" fill="#E5DEC1"/>
<path d="M245.863 592.959C245.863 592.959 255.763 583.955 266.971 586.789C278.178 589.622 286.137 594.46 291.755 603.296C291.755 603.296 287.573 589.149 267.329 585.45C251.206 582.502 245.863 592.959 245.863 592.959Z" fill="#E5DEC1"/>
<path d="M245.191 598.76C245.191 598.76 252.531 606.224 264.523 606.714C276.515 607.203 283.668 606.402 291.75 603.615C291.75 603.615 281.191 609.41 267.442 608.929C256.444 608.544 248.634 605.581 245.191 598.76Z" fill="#E5DEC1"/>
<path d="M291.502 603.946C291.502 603.946 280.853 613.065 270.153 615.794C259.455 618.52 247.297 610.887 245.229 599.808C245.229 599.808 253.658 616.335 267.165 614.435C280.673 612.54 288.16 604.808 291.502 603.946Z" fill="#E5DEC1"/>
<path d="M235.869 597.42C249.178 593.527 265.576 604.02 269.098 618.65C272.743 633.731 257.513 642.839 255.015 655.95C244.291 650.603 223.518 643.261 218.804 631.396C213.678 618.912 225.034 603.009 235.745 597.638" fill="#FFF9DE"/>
<path d="M235.854 600.797C235.854 600.797 254.886 625.007 252.383 646.814C252.383 646.814 249.129 623.308 235.854 600.797Z" fill="#E5DEC1"/>
<path d="M236.977 600.355C236.977 600.355 248.729 608.375 252.111 622.08C254.523 631.854 255.282 635.259 252.385 646.815C252.385 646.815 258.673 639.68 253.544 621.562C248.417 603.446 236.977 600.355 236.977 600.355Z" fill="#E5DEC1"/>
<path d="M234.382 601.818C234.382 601.818 238.624 618.343 241.929 625.743C245.232 633.14 252.153 646.87 252.153 646.87C252.153 646.87 244.787 637.575 240.129 626.103C235.31 614.235 234.382 601.818 234.382 601.818Z" fill="#E5DEC1"/>
<path d="M238.872 600.052C238.872 600.052 251.97 604.539 254.99 616.112C258.011 627.685 257.595 637.315 252.382 646.815C252.382 646.815 263.959 636.199 257.221 615.997C251.855 599.912 238.872 600.052 238.872 600.052Z" fill="#E5DEC1"/>
<path d="M233.278 602.335C233.278 602.335 230.17 612.711 235.706 623.827C241.243 634.943 245.536 641.032 252.093 646.967C252.093 646.967 241.574 640.283 235.152 627.578C230.019 617.416 228.809 608.858 233.278 602.335Z" fill="#E5DEC1"/>
<path d="M251.668 646.909C251.668 646.909 238.089 641.802 230.281 633.462C222.474 625.123 223.332 610.294 232.347 602.894C232.347 602.894 221.566 618.776 230.021 630.076C238.477 641.376 249.22 644.309 251.668 646.909Z" fill="#E5DEC1"/>
<path d="M236.332 597.783C239.902 610.144 237.866 631.169 222.375 636.875C211.127 641.176 198.225 632.102 186.235 636.364C182.548 630.248 184.193 617.795 185.093 612.189C186.482 603.037 194.587 597.711 203.034 595.638C213.007 592.904 227.163 591.887 236.239 597.441" fill="#F9F3D4"/>
<path d="M231.911 603.534C231.911 603.534 213.491 625.931 192.929 628.037C192.929 628.037 213.889 620.292 231.911 603.534Z" fill="#E5DEC1"/>
<path d="M232.545 604.476C232.545 604.476 227.543 616.907 215.622 622.787C207.12 626.98 204.142 628.364 192.928 628.037C192.928 628.037 200.761 632.376 216.387 624C232.014 615.621 232.545 604.476 232.545 604.476Z" fill="#E5DEC1"/>
<path d="M230.676 602.384C230.676 602.384 216.334 609.627 210.197 614.161C204.062 618.694 192.831 627.835 192.831 627.835C192.831 627.835 199.891 619.18 209.5 612.58C219.442 605.748 230.676 602.384 230.676 602.384Z" fill="#E5DEC1"/>
<path d="M233.207 606.16C233.207 606.16 231.727 619.113 221.693 624.23C211.658 629.346 202.719 630.91 192.929 628.038C192.929 628.038 205.073 635.722 222.291 625.443C236.001 617.256 233.207 606.16 233.207 606.16Z" fill="#E5DEC1"/>
<path d="M229.976 601.474C229.976 601.474 219.504 601.389 210.698 608.053C201.374 615.11 196.864 620.571 192.728 627.8C192.728 627.8 196.75 616.775 207.138 608.302C215.445 601.525 221.881 599.73 229.976 601.474Z" fill="#E5DEC1"/>
<path d="M191.711 627.004C191.711 627.004 190.42 619.959 195.773 610.816C199.362 604.684 206.713 595.39 228.482 599.476C228.482 599.476 206.578 597.875 199.279 608.941C192.954 618.531 191.711 627.004 191.711 627.004Z" fill="#E5DEC1"/>
<path d="M235.592 598.411C225.887 601.011 220.638 605.19 212.807 606.848C206.338 608.133 197.802 606.329 192.52 602.173C179.151 590.73 186.767 575.183 180.856 560.72C193.218 557.822 214.028 559.73 223.19 569.159C229.257 575.295 237 587.548 235.993 597.874" fill="#F2EACC"/>
<path d="M227.917 594.941C227.917 594.941 210.509 571.258 189.818 567.997C189.818 567.997 210.602 576.989 227.917 594.941Z" fill="#E5DEC1"/>
<path d="M228.61 594.023C228.61 594.023 224.232 581.168 212.495 574.562C204.121 569.848 201.183 568.281 189.817 567.997C189.817 567.997 197.983 564.036 213.336 573.376C228.687 582.714 228.61 594.023 228.61 594.023Z" fill="#E5DEC1"/>
<path d="M226.602 596.036C226.602 596.036 212.486 587.917 206.526 582.99C200.566 578.064 189.706 568.193 189.706 568.193C189.706 568.193 196.373 577.342 205.735 584.552C215.419 592.012 226.602 596.036 226.602 596.036Z" fill="#E5DEC1"/>
<path d="M229.231 592.875C229.231 592.875 227.549 579.113 217.675 573.383C207.804 567.65 199.882 565.629 189.817 567.997C189.817 567.997 201.492 560.835 218.348 572.189C231.771 581.229 229.231 592.875 229.231 592.875Z" fill="#E5DEC1"/>
<path d="M225.846 596.918C225.846 596.918 215.51 597.129 206.7 589.2C197.889 581.271 193.389 575.768 189.603 568.222C189.603 568.222 193.063 579.604 203.109 588.75C211.142 596.067 218.706 599.364 225.846 596.918Z" fill="#E5DEC1"/>
<path d="M189.547 568.63C189.547 568.63 190.779 582.42 196.455 591.73C202.131 601.036 215.842 603.031 225.093 597.633C225.093 597.633 207.735 603.493 199.502 592.834C191.268 582.173 191.313 571.544 189.547 568.63Z" fill="#E5DEC1"/>
<path d="M226.122 590.529C225.27 592.025 223.367 592.545 221.872 591.693C220.377 590.842 219.856 588.941 220.708 587.445C221.56 585.951 223.462 585.43 224.957 586.28C226.452 587.132 226.973 589.035 226.122 590.529Z" fill="#F7BD51"/>
<path d="M238.786 607.069C237.389 609.519 234.269 610.376 231.816 608.979C229.365 607.582 228.51 604.463 229.907 602.012C231.303 599.559 234.424 598.705 236.876 600.1C239.329 601.496 240.183 604.618 238.786 607.069Z" fill="#F7BD51"/>
<path d="M250.866 588.135C249.81 589.988 247.45 590.634 245.596 589.579C243.742 588.523 243.097 586.162 244.152 584.308C245.207 582.456 247.568 581.809 249.422 582.864C251.276 583.921 251.922 586.28 250.866 588.135Z" fill="#FFE888"/>
<path d="M250.774 601.134C249.616 603.165 247.028 603.877 244.995 602.718C242.961 601.56 242.252 598.972 243.411 596.937C244.569 594.906 247.157 594.196 249.189 595.355C251.223 596.513 251.933 599.102 250.774 601.134Z" fill="#F7BD51"/>
<path d="M239.927 592.229C238.871 594.083 236.511 594.73 234.659 593.673C232.805 592.615 232.159 590.256 233.214 588.403C234.27 586.549 236.629 585.903 238.483 586.959C240.337 588.015 240.983 590.375 239.927 592.229Z" fill="#FFE888"/>
<path d="M315.431 723.245C323.101 732.03 346.348 741.128 355.39 741.101C366.417 741.011 377.462 744.149 388.391 743.828C374.954 734.418 359.387 726.993 342.826 724.846C335.98 723.974 322.521 720.24 315.66 723.15C315.854 723.604 316.083 723.511 316.277 723.968" fill="#6FC576"/>
<path d="M288.101 733.773C280.43 742.557 257.184 751.655 248.141 751.629C237.115 751.539 226.069 754.676 215.141 754.356C228.577 744.945 244.145 737.52 260.706 735.374C267.552 734.502 281.011 730.767 287.872 733.677C287.678 734.132 287.448 734.039 287.254 734.495" fill="#6FC576"/>
<path d="M368.102 657.008C351.656 659.536 322.919 680.586 316.034 691.501C307.713 704.855 295.485 715.764 287.514 729.175C309.127 720.181 329.978 707.104 345.23 688.793C351.517 681.211 366.306 667.85 368.043 657.357C367.345 657.242 367.286 657.591 366.587 657.478" fill="#66A86B"/>
<path d="M291.784 715.918C310.742 722.836 353.585 717.237 367.276 709.655C383.921 700.32 403.289 695.862 419.595 686.258C391.367 683.201 361.566 684.925 334.66 695.487C323.548 699.877 300.024 705.442 292.049 715.58C292.724 716.111 292.992 715.772 293.668 716.304" fill="#6FC576"/>
<path d="M296.341 706.964C307.738 702.935 310.45 690.241 307.854 679.676C304.549 664.312 287.055 658.334 273.448 658.803C271.932 671.315 258.883 681.449 265.142 694.53C269.976 703.858 285.676 711.724 296.024 706.975" fill="#FFF9DE"/>
<path d="M294.276 703.077C294.276 703.077 292.066 675.756 277.245 663.029C277.245 663.029 289.333 680.347 294.276 703.077Z" fill="#E5DEC1"/>
<path d="M295.277 702.687C295.277 702.687 298.123 690.894 292.047 679.902C287.711 672.061 286.125 668.823 277.245 663.029C277.245 663.029 285.667 663.885 293.272 678.818C300.878 693.751 295.277 702.687 295.277 702.687Z" fill="#E5DEC1"/>
<path d="M292.696 703.3C292.696 703.3 285.473 689.943 283.158 683.112C280.842 676.284 277.059 663.132 277.059 663.132C277.059 663.132 277.866 673.655 281.764 683.966C285.794 694.627 292.696 703.3 292.696 703.3Z" fill="#E5DEC1"/>
<path d="M296.698 701.738C296.698 701.738 303.129 690.56 298.103 681.175C293.077 671.789 286.393 666.081 277.245 663.029C277.245 663.029 291.448 663.146 299.264 680.414C305.484 694.164 296.698 701.738 296.698 701.738Z" fill="#E5DEC1"/>
<path d="M291.662 703.632C291.662 703.632 283.358 698.732 280.251 688.126C277.146 677.518 276.269 670.948 276.962 663.103C276.962 663.103 274.133 673.832 277.624 686.009C280.413 695.749 284.8 702.073 291.662 703.632Z" fill="#E5DEC1"/>
<path d="M276.719 663.399C276.719 663.399 270.941 674.948 270.884 685.116C270.827 695.281 280.355 704.448 290.717 703.83C290.717 703.83 274.072 699.977 272.762 687.485C271.45 674.991 276.693 666.577 276.719 663.399Z" fill="#E5DEC1"/>
<path d="M296.386 706.452C292.348 697.981 281.809 688.887 270.53 689.606C264.463 690.364 257.067 692.831 253.447 697.429C251.375 699.55 243.49 711.063 243.621 711.779C243.661 712.002 254.306 721.28 257.333 723.824C261.958 728.08 267.496 729.882 273.922 728.6C284.377 726.391 293 716.758 295.64 706.865" fill="#F2EACC"/>
<path d="M289.527 705.358C289.527 705.358 264.496 700.899 249.584 711.196C249.584 711.196 267.97 704.433 289.527 705.358Z" fill="#E5DEC1"/>
<path d="M289.411 704.37C289.411 704.37 279.002 698.923 267.708 701.783C259.653 703.825 256.875 704.592 249.584 711.195C249.584 711.195 252.338 703.841 267.528 700.539C282.717 697.237 289.411 704.37 289.411 704.37Z" fill="#E5DEC1"/>
<path d="M289.355 706.828C289.355 706.828 275.669 710.157 268.996 710.623C262.326 711.093 249.634 711.385 249.634 711.385C249.634 711.385 259.267 713.141 269.434 712.078C279.948 710.975 289.355 706.828 289.355 706.828Z" fill="#E5DEC1"/>
<path d="M288.896 702.87C288.896 702.87 280.539 695.072 270.936 697.367C261.331 699.663 254.48 703.708 249.584 711.196C249.584 711.196 253.311 699.16 270.644 696.22C284.446 693.878 288.896 702.87 288.896 702.87Z" fill="#E5DEC1"/>
<path d="M289.406 707.833C289.406 707.833 283.055 714.125 272.807 714.412C262.559 714.699 256.458 713.932 249.586 711.467C249.586 711.467 258.541 716.532 270.289 716.271C279.685 716.066 286.391 713.623 289.406 707.833Z" fill="#E5DEC1"/>
<path d="M249.794 711.75C249.794 711.75 258.789 719.658 267.896 722.107C277.003 724.551 287.474 718.169 289.36 708.727C289.36 708.727 281.979 722.752 270.463 720.982C258.948 719.211 252.638 712.527 249.794 711.75Z" fill="#E5DEC1"/>
<path d="M292.525 710.259C281.201 706.787 267.079 715.571 263.909 728.022C260.631 740.866 273.539 748.813 275.526 760.039C284.745 755.593 302.567 749.549 306.723 739.467C311.241 728.862 301.714 715.152 292.626 710.444" fill="#FFF9DE"/>
<path d="M292.5 713.142C292.5 713.142 275.977 733.611 277.874 752.264C277.874 752.264 280.912 732.221 292.5 713.142Z" fill="#E5DEC1"/>
<path d="M291.546 712.751C291.546 712.751 281.421 719.473 278.382 731.142C276.212 739.462 275.527 742.363 277.874 752.265C277.874 752.265 272.583 746.1 277.162 730.683C281.743 715.265 291.546 712.751 291.546 712.751Z" fill="#E5DEC1"/>
<path d="M293.748 714.029C293.748 714.029 289.941 728.099 287.04 734.383C284.137 740.664 278.072 752.315 278.072 752.315C278.072 752.315 284.467 744.459 288.571 734.71C292.817 724.626 293.748 714.029 293.748 714.029Z" fill="#E5DEC1"/>
<path d="M289.929 712.473C289.929 712.473 278.692 716.159 275.986 726.012C273.28 735.865 273.529 744.093 277.874 752.265C277.874 752.265 268.104 743.07 274.082 725.889C278.843 712.207 289.929 712.473 289.929 712.473Z" fill="#E5DEC1"/>
<path d="M294.683 714.484C294.683 714.484 297.223 723.38 292.372 732.814C287.522 742.249 283.788 747.4 278.121 752.398C278.121 752.398 287.18 746.805 292.803 736.025C297.302 727.404 298.429 720.106 294.683 714.484Z" fill="#E5DEC1"/>
<path d="M278.485 752.352C278.485 752.352 290.14 748.14 296.901 741.102C303.662 734.065 303.092 721.391 295.473 714.971C295.473 714.971 304.506 728.657 297.16 738.215C289.812 747.772 280.604 750.159 278.485 752.352Z" fill="#E5DEC1"/>
<path d="M296.982 707.093C293.796 717.613 295.302 735.592 308.471 740.638C318.032 744.438 329.151 736.83 339.346 740.601C342.562 735.416 341.295 724.763 340.588 719.966C339.502 712.132 332.64 707.496 325.447 705.632C316.959 703.188 304.879 702.162 297.068 706.806" fill="#F9F3D4"/>
<path d="M300.694 712.056C300.694 712.056 316.18 731.388 333.72 733.414C333.72 733.414 315.902 726.567 300.694 712.056Z" fill="#E5DEC1"/>
<path d="M300.142 712.854C300.142 712.854 304.278 723.524 314.394 728.68C321.61 732.354 324.137 733.569 333.721 733.414C333.721 733.414 326.982 737.035 313.727 729.707C300.475 722.382 300.142 712.854 300.142 712.854Z" fill="#E5DEC1"/>
<path d="M301.763 711.089C301.763 711.089 313.932 717.43 319.125 721.373C324.317 725.311 333.808 733.245 333.808 733.245C333.808 733.245 327.874 725.774 319.739 720.031C311.32 714.087 301.763 711.089 301.763 711.089Z" fill="#E5DEC1"/>
<path d="M299.559 714.285C299.559 714.285 300.682 725.366 309.196 729.846C317.709 734.325 325.328 735.763 333.721 733.415C333.721 733.415 323.263 739.846 308.67 730.874C297.051 723.73 299.559 714.285 299.559 714.285Z" fill="#E5DEC1"/>
<path d="M302.371 710.318C302.371 710.318 311.315 710.361 318.762 716.15C326.648 722.279 330.44 726.992 333.893 733.214C333.893 733.214 330.58 723.751 321.801 716.403C314.782 710.524 309.302 708.917 302.371 710.318Z" fill="#E5DEC1"/>
<path d="M334.771 732.546C334.771 732.546 335.953 726.542 331.481 718.676C328.483 713.397 322.306 705.38 303.668 708.628C303.668 708.628 322.394 707.5 328.507 717.035C333.805 725.297 334.771 732.546 334.771 732.546Z" fill="#E5DEC1"/>
<path d="M297.609 707.639C305.869 709.967 310.306 713.592 316.976 715.096C322.488 716.267 329.798 714.821 334.354 711.325C345.9 701.704 339.564 688.338 344.775 676.054C334.248 673.438 316.453 674.842 308.524 682.794C303.275 687.964 296.526 698.347 297.273 707.179" fill="#F2EACC"/>
<path d="M304.203 704.764C304.203 704.764 319.33 684.726 337.041 682.168C337.041 682.168 319.19 689.619 304.203 704.764Z" fill="#E5DEC1"/>
<path d="M303.62 703.969C303.62 703.969 307.5 693.037 317.599 687.526C324.803 683.591 327.327 682.286 337.042 682.168C337.042 682.168 330.11 678.695 316.894 686.502C303.678 694.309 303.62 703.969 303.62 703.969Z" fill="#E5DEC1"/>
<path d="M305.313 705.711C305.313 705.711 317.458 698.933 322.604 694.79C327.749 690.65 337.133 682.339 337.133 682.339C337.133 682.339 331.337 690.078 323.263 696.134C314.909 702.397 305.313 705.711 305.313 705.711Z" fill="#E5DEC1"/>
<path d="M303.101 702.981C303.101 702.981 304.69 691.245 313.186 686.458C321.682 681.675 328.47 680.033 337.041 682.168C337.041 682.168 327.148 675.922 312.626 685.433C301.061 693.007 303.101 702.981 303.101 702.981Z" fill="#E5DEC1"/>
<path d="M305.95 706.473C305.95 706.473 314.775 706.766 322.387 700.093C329.999 693.418 333.904 688.766 337.221 682.364C337.221 682.364 334.14 692.047 325.458 699.749C318.518 705.909 312.021 708.642 305.95 706.473Z" fill="#E5DEC1"/>
<path d="M337.264 682.71C337.264 682.71 336.06 694.478 331.109 702.364C326.158 710.251 314.426 711.803 306.585 707.091C306.585 707.091 321.346 712.287 328.496 703.275C335.645 694.26 335.722 685.181 337.264 682.71Z" fill="#E5DEC1"/>
<path d="M303.885 703.608C304.595 704.891 306.214 705.36 307.502 704.649C308.787 703.938 309.254 702.317 308.543 701.033C307.832 699.746 306.213 699.278 304.926 699.992C303.64 700.702 303.172 702.321 303.885 703.608Z" fill="#F7BD51"/>
<path d="M294.785 715C295.951 717.109 298.606 717.875 300.716 716.708C302.828 715.543 303.591 712.887 302.426 710.776C301.258 708.666 298.604 707.901 296.494 709.067C294.382 710.233 293.618 712.891 294.785 715Z" fill="#F7BD51"/>
<path d="M284.676 698.694C285.558 700.288 287.565 700.866 289.16 699.984C290.754 699.103 291.334 697.095 290.451 695.499C289.57 693.905 287.563 693.327 285.967 694.209C284.372 695.091 283.794 697.1 284.676 698.694Z" fill="#F7BD51"/>
<path d="M284.61 709.799C285.577 711.548 287.779 712.182 289.529 711.216C291.278 710.248 291.912 708.044 290.946 706.295C289.978 704.548 287.777 703.912 286.027 704.88C284.277 705.846 283.643 708.048 284.61 709.799Z" fill="#FFE888"/>
<path d="M293.974 702.31C294.855 703.908 296.863 704.486 298.459 703.604C300.054 702.719 300.632 700.714 299.75 699.118C298.867 697.522 296.86 696.943 295.267 697.828C293.671 698.71 293.092 700.716 293.974 702.31Z" fill="#FFE888"/>
</svg>
